<svg width="1440" height="344" viewBox="0 0 1440 344" fill="none" xmlns="http://www.w3.org/2000/svg">
<line y1="0.5" x2="1440" y2="0.5" stroke="#D8E3FE"/>
<line y1="343.5" x2="1440" y2="343.5" stroke="#D8E3FE"/>
<rect y="1" width="1440" height="342" fill="url(#paint0_linear_6_371)"/>
<rect y="1" width="720" height="342" fill="url(#paint1_linear_6_371)"/>
<path d="M565 98.625C565 81.159 579.241 67 596.809 67C600.046 67 603.171 67.481 606.115 68.375" stroke="white" stroke-width="4" stroke-linecap="round" stroke-linejoin="round"/>
<path fill-rule="evenodd" clip-rule="evenodd" d="M589.963 105.431C593.744 109.19 599.873 109.19 603.654 105.431C607.434 101.672 623.085 75.2499 621.702 73.8749C620.319 72.4999 593.744 88.0602 589.963 91.819C586.182 95.5778 586.182 101.672 589.963 105.431ZM596.808 101.375C598.336 101.375 599.574 100.144 599.574 98.6251C599.574 97.1063 598.336 95.8751 596.808 95.8751C595.28 95.8751 594.042 97.1063 594.042 98.6251C594.042 100.144 595.28 101.375 596.808 101.375Z" fill="white"/>
<ellipse cx="569.149" cy="115.125" rx="2.76596" ry="2.75" fill="white"/>
<ellipse cx="580.213" cy="126.125" rx="2.76596" ry="2.75" fill="white"/>
<ellipse cx="596.808" cy="130.25" rx="2.76596" ry="2.75" fill="white"/>
<ellipse cx="613.404" cy="126.125" rx="2.76596" ry="2.75" fill="white"/>
<ellipse cx="623.085" cy="115.125" rx="2.76596" ry="2.75" fill="white"/>
<ellipse cx="627.234" cy="98.625" rx="2.76596" ry="2.75" fill="white"/>
<path d="M553.175 187.912C554.774 188.68 556.07 189.784 557.063 191.224C558.087 192.632 558.599 194.232 558.599 196.024C558.599 197.72 558.135 199.288 557.207 200.728C556.311 202.168 555.062 203.304 553.462 204.136C551.894 204.968 550.167 205.384 548.279 205.384C546.391 205.384 544.663 204.968 543.095 204.136C541.527 203.304 540.279 202.168 539.351 200.728C538.455 199.288 538.007 197.72 538.007 196.024C538.007 194.168 538.503 192.552 539.495 191.176C540.487 189.8 541.751 188.728 543.287 187.96C542.007 187.288 540.935 186.296 540.071 184.984C539.207 183.64 538.775 182.152 538.775 180.52C538.775 178.824 539.191 177.288 540.023 175.912C540.887 174.504 542.039 173.4 543.479 172.6C544.951 171.8 546.551 171.4 548.279 171.4C550.007 171.4 551.591 171.8 553.031 172.6C554.503 173.4 555.655 174.504 556.487 175.912C557.319 177.288 557.735 178.824 557.735 180.52C557.735 182.184 557.287 183.656 556.391 184.936C555.527 186.216 554.455 187.208 553.175 187.912ZM548.279 174.136C546.327 174.136 544.743 174.728 543.527 175.912C542.311 177.096 541.703 178.632 541.703 180.52C541.703 181.768 542.007 182.888 542.615 183.88C543.223 184.84 544.023 185.592 545.015 186.136C546.039 186.68 547.127 186.952 548.279 186.952C549.431 186.952 550.503 186.68 551.495 186.136C552.519 185.592 553.319 184.84 553.894 183.88C554.503 182.888 554.807 181.768 554.807 180.52C554.807 178.632 554.199 177.096 552.983 175.912C551.767 174.728 550.199 174.136 548.279 174.136ZM548.279 202.6C550.455 202.6 552.231 201.992 553.607 200.776C554.983 199.528 555.67 197.944 555.67 196.024C555.67 194.776 555.334 193.64 554.662 192.616C553.99 191.592 553.079 190.792 551.927 190.216C550.807 189.608 549.591 189.304 548.279 189.304C546.967 189.304 545.751 189.608 544.631 190.216C543.511 190.792 542.615 191.592 541.943 192.616C541.271 193.64 540.934 194.776 540.934 196.024C540.934 197.944 541.607 199.528 542.951 200.776C544.327 201.992 546.103 202.6 548.279 202.6ZM576.523 170.872C578.891 170.872 580.907 171.432 582.571 172.552C584.235 173.672 585.467 175.144 586.267 176.968C587.099 178.792 587.515 180.76 587.515 182.872C587.515 185.56 586.939 188.424 585.787 191.464C584.667 194.504 582.987 197.288 580.747 199.816C578.539 202.344 575.915 204.184 572.875 205.336C572.619 205.4 572.427 205.432 572.299 205.432C571.883 205.432 571.515 205.288 571.195 205C570.907 204.712 570.763 204.36 570.763 203.944C570.763 203.272 571.147 202.808 571.915 202.552C574.539 201.432 576.955 199.64 579.163 197.176C581.403 194.68 582.923 191.976 583.723 189.064C582.795 190.12 581.643 190.968 580.267 191.608C578.923 192.216 577.467 192.52 575.899 192.52C574.011 192.52 572.315 192.024 570.811 191.032C569.307 190.008 568.123 188.664 567.259 187C566.395 185.304 565.963 183.512 565.963 181.624C565.963 179.736 566.411 177.976 567.307 176.344C568.235 174.68 569.499 173.352 571.099 172.36C572.731 171.368 574.539 170.872 576.523 170.872ZM576.379 189.736C578.043 189.736 579.499 189.368 580.747 188.632C581.995 187.896 582.939 186.904 583.579 185.656C584.251 184.376 584.587 182.984 584.587 181.48C584.587 180.072 584.267 178.776 583.627 177.592C582.987 176.408 582.059 175.464 580.843 174.76C579.627 174.024 578.203 173.656 576.571 173.656C575.099 173.656 573.787 173.992 572.635 174.664C571.483 175.336 570.571 176.28 569.899 177.496C569.259 178.712 568.939 180.088 568.939 181.624C568.939 183.064 569.227 184.408 569.803 185.656C570.379 186.872 571.227 187.864 572.347 188.632C573.467 189.368 574.811 189.736 576.379 189.736ZM599.982 188.536C597.902 188.536 596.286 187.704 595.134 186.04C594.014 184.376 593.454 182.312 593.454 179.848C593.454 177.352 594.03 175.256 595.182 173.56C596.366 171.864 597.998 171.016 600.078 171.016C602.158 171.016 603.774 171.864 604.926 173.56C606.078 175.224 606.654 177.304 606.654 179.8C606.654 182.264 606.062 184.344 604.878 186.04C603.694 187.704 602.062 188.536 599.982 188.536ZM599.454 205.144C599.07 205.144 598.75 205.032 598.494 204.808C598.238 204.552 598.11 204.232 598.11 203.848C598.11 203.592 598.19 203.336 598.35 203.08L618.894 171.88C619.022 171.688 619.182 171.544 619.374 171.448C619.566 171.32 619.758 171.256 619.95 171.256C620.302 171.256 620.606 171.384 620.862 171.64C621.15 171.864 621.294 172.168 621.294 172.552C621.294 172.808 621.214 173.064 621.054 173.32L600.51 204.52C600.19 204.936 599.838 205.144 599.454 205.144ZM600.078 186.04C601.358 186.04 602.318 185.48 602.958 184.36C603.598 183.208 603.918 181.704 603.918 179.848C603.918 177.96 603.566 176.44 602.862 175.288C602.19 174.104 601.23 173.512 599.982 173.512C598.702 173.512 597.742 174.088 597.102 175.24C596.494 176.392 596.19 177.912 596.19 179.8C596.19 181.656 596.526 183.16 597.198 184.312C597.87 185.464 598.83 186.04 600.078 186.04ZM619.758 205.432C617.71 205.432 616.094 204.6 614.91 202.936C613.758 201.24 613.182 199.16 613.182 196.696C613.182 194.2 613.774 192.104 614.958 190.408C616.142 188.712 617.774 187.864 619.854 187.864C621.934 187.864 623.534 188.712 624.654 190.408C625.806 192.072 626.382 194.152 626.382 196.648C626.382 199.112 625.79 201.192 624.606 202.888C623.454 204.584 621.838 205.432 619.758 205.432ZM619.854 202.888C621.134 202.888 622.094 202.328 622.734 201.208C623.374 200.056 623.694 198.552 623.694 196.696C623.694 194.808 623.342 193.288 622.638 192.136C621.966 190.952 621.006 190.36 619.758 190.36C618.478 190.36 617.518 190.952 616.878 192.136C616.238 193.288 615.918 194.792 615.918 196.648C615.918 198.504 616.254 200.008 616.926 201.16C617.63 202.312 618.606 202.888 619.854 202.888Z" fill="white"/>
<path d="M453.463 238.138C453.751 238.294 453.895 238.534 453.895 238.858C453.895 239.074 453.823 239.272 453.679 239.452C453.535 239.644 453.337 239.74 453.085 239.74C452.917 239.74 452.755 239.698 452.599 239.614C451.855 239.194 451.051 238.984 450.187 238.984C449.287 238.984 448.489 239.182 447.793 239.578C447.109 239.974 446.575 240.532 446.191 241.252C445.807 241.96 445.615 242.776 445.615 243.7C445.615 244.696 445.813 245.554 446.209 246.274C446.605 246.994 447.151 247.546 447.847 247.93C448.543 248.302 449.323 248.488 450.187 248.488C451.075 248.488 451.879 248.272 452.599 247.84C452.743 247.768 452.899 247.732 453.067 247.732C453.331 247.732 453.541 247.834 453.697 248.038C453.841 248.218 453.913 248.41 453.913 248.614C453.913 248.758 453.871 248.896 453.787 249.028C453.715 249.148 453.613 249.244 453.481 249.316C453.013 249.58 452.485 249.79 451.897 249.946C451.321 250.102 450.751 250.18 450.187 250.18C449.023 250.18 447.949 249.922 446.965 249.406C445.993 248.89 445.213 248.14 444.625 247.156C444.049 246.172 443.761 245.02 443.761 243.7C443.761 242.488 444.037 241.396 444.589 240.424C445.153 239.44 445.921 238.672 446.893 238.12C447.877 237.556 448.975 237.274 450.187 237.274C451.351 237.274 452.443 237.562 453.463 238.138ZM463.304 240.568C463.556 240.568 463.76 240.652 463.916 240.82C464.084 240.988 464.168 241.192 464.168 241.432V246.22C464.168 247.468 463.82 248.44 463.124 249.136C462.44 249.82 461.468 250.162 460.208 250.162C458.96 250.162 457.994 249.82 457.31 249.136C456.626 248.44 456.284 247.468 456.284 246.22V241.432C456.284 241.192 456.362 240.988 456.518 240.82C456.686 240.652 456.89 240.568 457.13 240.568C457.382 240.568 457.586 240.652 457.742 240.82C457.91 240.988 457.994 241.192 457.994 241.432V246.22C457.994 247.792 458.732 248.578 460.208 248.578C460.94 248.578 461.498 248.38 461.882 247.984C462.266 247.588 462.458 247 462.458 246.22V241.432C462.458 241.192 462.536 240.988 462.692 240.82C462.86 240.652 463.064 240.568 463.304 240.568ZM466.725 248.524C466.617 248.356 466.563 248.194 466.563 248.038C466.563 247.798 466.689 247.594 466.941 247.426C467.061 247.342 467.199 247.3 467.355 247.3C467.571 247.3 467.769 247.39 467.949 247.57C468.309 247.978 468.693 248.284 469.101 248.488C469.521 248.692 470.019 248.794 470.595 248.794C471.051 248.782 471.453 248.68 471.801 248.488C472.149 248.284 472.323 247.96 472.323 247.516C472.323 247.108 472.143 246.796 471.783 246.58C471.435 246.364 470.919 246.166 470.235 245.986C469.563 245.806 469.005 245.62 468.561 245.428C468.117 245.224 467.739 244.936 467.427 244.564C467.127 244.18 466.977 243.682 466.977 243.07C466.977 242.53 467.127 242.056 467.427 241.648C467.739 241.24 468.147 240.922 468.651 240.694C469.167 240.466 469.725 240.352 470.325 240.352C470.901 240.352 471.471 240.46 472.035 240.676C472.611 240.892 473.079 241.222 473.439 241.666C473.583 241.834 473.655 242.008 473.655 242.188C473.655 242.38 473.559 242.566 473.367 242.746C473.247 242.854 473.097 242.908 472.917 242.908C472.701 242.908 472.527 242.836 472.395 242.692C472.143 242.404 471.831 242.182 471.459 242.026C471.099 241.87 470.697 241.792 470.253 241.792C469.797 241.792 469.407 241.888 469.083 242.08C468.771 242.26 468.615 242.572 468.615 243.016C468.627 243.436 468.807 243.748 469.155 243.952C469.515 244.156 470.061 244.354 470.793 244.546C471.429 244.714 471.957 244.894 472.377 245.086C472.797 245.278 473.151 245.566 473.439 245.95C473.727 246.322 473.871 246.814 473.871 247.426C473.871 247.99 473.709 248.482 473.385 248.902C473.061 249.31 472.635 249.628 472.107 249.856C471.591 250.072 471.039 250.18 470.451 250.18C469.695 250.18 468.993 250.048 468.345 249.784C467.709 249.52 467.169 249.1 466.725 248.524ZM478.939 242.242V247.606C478.939 248.206 479.209 248.506 479.749 248.506C479.833 248.506 479.947 248.488 480.091 248.452C480.235 248.404 480.349 248.38 480.433 248.38C480.589 248.38 480.721 248.446 480.829 248.578C480.937 248.71 480.991 248.878 480.991 249.082C480.991 249.334 480.847 249.55 480.559 249.73C480.271 249.91 479.947 250 479.587 250C479.191 250 478.825 249.958 478.489 249.874C478.165 249.79 477.871 249.58 477.607 249.244C477.355 248.896 477.229 248.374 477.229 247.678V242.242H476.185C475.957 242.242 475.765 242.17 475.609 242.026C475.465 241.87 475.393 241.678 475.393 241.45C475.393 241.222 475.465 241.036 475.609 240.892C475.765 240.748 475.957 240.676 476.185 240.676H477.229V239.164C477.229 238.924 477.307 238.72 477.463 238.552C477.631 238.384 477.841 238.3 478.093 238.3C478.333 238.3 478.531 238.384 478.687 238.552C478.855 238.72 478.939 238.924 478.939 239.164V240.676H480.433C480.661 240.676 480.847 240.754 480.991 240.91C481.147 241.054 481.225 241.24 481.225 241.468C481.225 241.696 481.147 241.882 480.991 242.026C480.847 242.17 480.661 242.242 480.433 242.242H478.939ZM492.601 245.284C492.601 246.22 492.391 247.06 491.971 247.804C491.551 248.548 490.975 249.13 490.243 249.55C489.523 249.97 488.725 250.18 487.849 250.18C486.973 250.18 486.169 249.97 485.437 249.55C484.717 249.13 484.147 248.548 483.727 247.804C483.307 247.06 483.097 246.22 483.097 245.284C483.097 244.348 483.307 243.502 483.727 242.746C484.147 241.99 484.717 241.402 485.437 240.982C486.169 240.562 486.973 240.352 487.849 240.352C488.725 240.352 489.523 240.562 490.243 240.982C490.975 241.402 491.551 241.99 491.971 242.746C492.391 243.502 492.601 244.348 492.601 245.284ZM490.891 245.284C490.891 244.636 490.753 244.06 490.477 243.556C490.213 243.04 489.847 242.644 489.379 242.368C488.923 242.08 488.413 241.936 487.849 241.936C487.285 241.936 486.769 242.08 486.301 242.368C485.845 242.644 485.479 243.04 485.203 243.556C484.939 244.06 484.807 244.636 484.807 245.284C484.807 245.92 484.939 246.49 485.203 246.994C485.479 247.498 485.845 247.894 486.301 248.182C486.769 248.458 487.285 248.596 487.849 248.596C488.413 248.596 488.923 248.458 489.379 248.182C489.847 247.894 490.213 247.498 490.477 246.994C490.753 246.49 490.891 245.92 490.891 245.284ZM505.947 240.406C508.047 240.406 509.097 241.714 509.097 244.33V249.136C509.097 249.388 509.019 249.598 508.863 249.766C508.707 249.922 508.503 250 508.251 250C507.999 250 507.789 249.916 507.621 249.748C507.465 249.58 507.387 249.376 507.387 249.136V244.348C507.387 242.776 506.727 241.99 505.407 241.99C504.939 241.99 504.513 242.098 504.129 242.314C503.757 242.518 503.463 242.8 503.247 243.16C503.043 243.52 502.941 243.916 502.941 244.348V249.136C502.941 249.376 502.857 249.58 502.689 249.748C502.533 249.916 502.329 250 502.077 250C501.825 250 501.621 249.922 501.465 249.766C501.309 249.598 501.231 249.388 501.231 249.136V244.33C501.231 243.622 501.081 243.058 500.781 242.638C500.481 242.206 499.983 241.99 499.287 241.99C498.579 241.99 497.991 242.218 497.523 242.674C497.067 243.118 496.839 243.67 496.839 244.33V249.136C496.839 249.376 496.755 249.58 496.587 249.748C496.431 249.916 496.227 250 495.975 250C495.723 250 495.519 249.922 495.363 249.766C495.207 249.598 495.129 249.388 495.129 249.136V241.432C495.129 241.192 495.207 240.988 495.363 240.82C495.531 240.652 495.735 240.568 495.975 240.568C496.227 240.568 496.431 240.652 496.587 240.82C496.755 240.988 496.839 241.192 496.839 241.432V242.062C497.151 241.594 497.565 241.204 498.081 240.892C498.609 240.568 499.179 240.406 499.791 240.406C501.279 240.406 502.245 241.066 502.689 242.386C502.953 241.882 503.391 241.426 504.003 241.018C504.615 240.61 505.263 240.406 505.947 240.406ZM520.473 244.924C520.461 245.14 520.371 245.326 520.203 245.482C520.035 245.626 519.837 245.698 519.609 245.698H513.273C513.357 246.574 513.687 247.276 514.263 247.804C514.851 248.332 515.565 248.596 516.405 248.596C516.981 248.596 517.449 248.512 517.809 248.344C518.169 248.176 518.487 247.96 518.763 247.696C518.943 247.588 519.117 247.534 519.285 247.534C519.489 247.534 519.657 247.606 519.789 247.75C519.933 247.894 520.005 248.062 520.005 248.254C520.005 248.506 519.885 248.734 519.645 248.938C519.297 249.286 518.835 249.58 518.259 249.82C517.683 250.06 517.095 250.18 516.495 250.18C515.523 250.18 514.665 249.976 513.921 249.568C513.189 249.16 512.619 248.59 512.211 247.858C511.815 247.126 511.617 246.298 511.617 245.374C511.617 244.366 511.821 243.484 512.229 242.728C512.649 241.96 513.195 241.372 513.867 240.964C514.551 240.556 515.283 240.352 516.063 240.352C516.831 240.352 517.551 240.55 518.223 240.946C518.895 241.342 519.435 241.888 519.843 242.584C520.251 243.28 520.461 244.06 520.473 244.924ZM516.063 241.936C515.391 241.936 514.809 242.128 514.317 242.512C513.825 242.884 513.501 243.466 513.345 244.258H518.655V244.114C518.595 243.478 518.307 242.956 517.791 242.548C517.287 242.14 516.711 241.936 516.063 241.936ZM527.696 240.352C528.008 240.352 528.278 240.436 528.506 240.604C528.734 240.76 528.848 240.958 528.848 241.198C528.848 241.486 528.77 241.708 528.614 241.864C528.47 242.008 528.29 242.08 528.074 242.08C527.966 242.08 527.804 242.044 527.588 241.972C527.336 241.888 527.138 241.846 526.994 241.846C526.622 241.846 526.256 241.978 525.896 242.242C525.548 242.494 525.26 242.848 525.032 243.304C524.816 243.748 524.708 244.246 524.708 244.798V249.136C524.708 249.376 524.624 249.58 524.456 249.748C524.3 249.916 524.096 250 523.844 250C523.592 250 523.388 249.922 523.232 249.766C523.076 249.598 522.998 249.388 522.998 249.136V241.432C522.998 241.192 523.076 240.988 523.232 240.82C523.4 240.652 523.604 240.568 523.844 240.568C524.096 240.568 524.3 240.652 524.456 240.82C524.624 240.988 524.708 241.192 524.708 241.432V242.35C524.972 241.762 525.368 241.288 525.896 240.928C526.424 240.556 527.024 240.364 527.696 240.352ZM530.434 248.524C530.326 248.356 530.272 248.194 530.272 248.038C530.272 247.798 530.398 247.594 530.65 247.426C530.77 247.342 530.908 247.3 531.064 247.3C531.28 247.3 531.478 247.39 531.658 247.57C532.018 247.978 532.402 248.284 532.81 248.488C533.23 248.692 533.728 248.794 534.304 248.794C534.76 248.782 535.162 248.68 535.51 248.488C535.858 248.284 536.032 247.96 536.032 247.516C536.032 247.108 535.852 246.796 535.492 246.58C535.144 246.364 534.628 246.166 533.944 245.986C533.272 245.806 532.714 245.62 532.27 245.428C531.826 245.224 531.448 244.936 531.136 244.564C530.836 244.18 530.686 243.682 530.686 243.07C530.686 242.53 530.836 242.056 531.136 241.648C531.448 241.24 531.856 240.922 532.36 240.694C532.876 240.466 533.434 240.352 534.034 240.352C534.61 240.352 535.18 240.46 535.744 240.676C536.32 240.892 536.788 241.222 537.148 241.666C537.292 241.834 537.364 242.008 537.364 242.188C537.364 242.38 537.268 242.566 537.076 242.746C536.956 242.854 536.806 242.908 536.626 242.908C536.41 242.908 536.236 242.836 536.104 242.692C535.852 242.404 535.54 242.182 535.168 242.026C534.808 241.87 534.406 241.792 533.962 241.792C533.506 241.792 533.116 241.888 532.792 242.08C532.48 242.26 532.324 242.572 532.324 243.016C532.336 243.436 532.516 243.748 532.864 243.952C533.224 244.156 533.77 244.354 534.502 244.546C535.138 244.714 535.666 244.894 536.086 245.086C536.506 245.278 536.86 245.566 537.148 245.95C537.436 246.322 537.58 246.814 537.58 247.426C537.58 247.99 537.418 248.482 537.094 248.902C536.77 249.31 536.344 249.628 535.816 249.856C535.3 250.072 534.748 250.18 534.16 250.18C533.404 250.18 532.702 250.048 532.054 249.784C531.418 249.52 530.878 249.1 530.434 248.524ZM556.64 240.478C556.868 240.478 557.06 240.562 557.216 240.73C557.384 240.886 557.468 241.09 557.468 241.342C557.468 241.426 557.444 241.54 557.396 241.684L554.642 249.46C554.57 249.652 554.45 249.796 554.282 249.892C554.114 249.988 553.934 250.024 553.742 250C553.418 249.976 553.172 249.796 553.004 249.46L551.132 244.564L549.404 249.46C549.332 249.628 549.23 249.76 549.098 249.856C548.966 249.94 548.822 249.988 548.666 250C548.486 250.024 548.306 249.988 548.126 249.892C547.958 249.784 547.844 249.64 547.784 249.46L544.994 241.684C544.958 241.576 544.94 241.462 544.94 241.342C544.94 241.102 545.018 240.898 545.174 240.73C545.33 240.562 545.534 240.478 545.786 240.478C546.194 240.478 546.458 240.658 546.578 241.018L548.72 247.084L550.43 242.602C550.574 242.242 550.838 242.062 551.222 242.062C551.582 242.062 551.828 242.242 551.96 242.602L553.706 247.012L555.812 241.018C555.944 240.658 556.22 240.478 556.64 240.478ZM564.555 240.406C566.667 240.406 567.723 241.714 567.723 244.33V249.136C567.723 249.376 567.639 249.58 567.471 249.748C567.315 249.916 567.111 250 566.859 250C566.619 250 566.415 249.916 566.247 249.748C566.091 249.58 566.013 249.376 566.013 249.136V244.33C566.013 242.77 565.353 241.99 564.033 241.99C563.325 241.99 562.737 242.218 562.269 242.674C561.801 243.118 561.567 243.67 561.567 244.33V249.136C561.567 249.376 561.483 249.58 561.315 249.748C561.159 249.916 560.955 250 560.703 250C560.451 250 560.247 249.922 560.091 249.766C559.935 249.598 559.857 249.388 559.857 249.136V237.544C559.857 237.304 559.935 237.1 560.091 236.932C560.259 236.764 560.463 236.68 560.703 236.68C560.955 236.68 561.159 236.764 561.315 236.932C561.483 237.1 561.567 237.304 561.567 237.544V242.098C561.867 241.63 562.287 241.234 562.827 240.91C563.367 240.574 563.943 240.406 564.555 240.406ZM579.749 245.284C579.749 246.22 579.539 247.06 579.119 247.804C578.699 248.548 578.123 249.13 577.391 249.55C576.671 249.97 575.873 250.18 574.997 250.18C574.121 250.18 573.317 249.97 572.585 249.55C571.865 249.13 571.295 248.548 570.875 247.804C570.455 247.06 570.245 246.22 570.245 245.284C570.245 244.348 570.455 243.502 570.875 242.746C571.295 241.99 571.865 241.402 572.585 240.982C573.317 240.562 574.121 240.352 574.997 240.352C575.873 240.352 576.671 240.562 577.391 240.982C578.123 241.402 578.699 241.99 579.119 242.746C579.539 243.502 579.749 244.348 579.749 245.284ZM578.039 245.284C578.039 244.636 577.901 244.06 577.625 243.556C577.361 243.04 576.995 242.644 576.527 242.368C576.071 242.08 575.561 241.936 574.997 241.936C574.433 241.936 573.917 242.08 573.449 242.368C572.993 242.644 572.627 243.04 572.351 243.556C572.087 244.06 571.955 244.636 571.955 245.284C571.955 245.92 572.087 246.49 572.351 246.994C572.627 247.498 572.993 247.894 573.449 248.182C573.917 248.458 574.433 248.596 574.997 248.596C575.561 248.596 576.071 248.458 576.527 248.182C576.995 247.894 577.361 247.498 577.625 246.994C577.901 246.49 578.039 245.92 578.039 245.284ZM592.507 240.406C594.619 240.406 595.675 241.714 595.675 244.33V249.136C595.675 249.376 595.591 249.58 595.423 249.748C595.267 249.916 595.063 250 594.811 250C594.571 250 594.367 249.916 594.199 249.748C594.043 249.58 593.965 249.376 593.965 249.136V244.33C593.965 242.77 593.305 241.99 591.985 241.99C591.277 241.99 590.689 242.218 590.221 242.674C589.753 243.118 589.519 243.67 589.519 244.33V249.136C589.519 249.376 589.435 249.58 589.267 249.748C589.111 249.916 588.907 250 588.655 250C588.403 250 588.199 249.922 588.043 249.766C587.887 249.598 587.809 249.388 587.809 249.136V237.544C587.809 237.304 587.887 237.1 588.043 236.932C588.211 236.764 588.415 236.68 588.655 236.68C588.907 236.68 589.111 236.764 589.267 236.932C589.435 237.1 589.519 237.304 589.519 237.544V242.098C589.819 241.63 590.239 241.234 590.779 240.91C591.319 240.574 591.895 240.406 592.507 240.406ZM606.423 240.442C606.675 240.442 606.879 240.526 607.035 240.694C607.203 240.85 607.287 241.06 607.287 241.324V249.136C607.287 249.376 607.203 249.58 607.035 249.748C606.879 249.916 606.675 250 606.423 250C606.171 250 605.967 249.922 605.811 249.766C605.655 249.598 605.577 249.388 605.577 249.136V248.668C605.265 249.088 604.839 249.448 604.299 249.748C603.759 250.036 603.177 250.18 602.553 250.18C601.737 250.18 600.993 249.97 600.321 249.55C599.661 249.13 599.139 248.548 598.755 247.804C598.383 247.048 598.197 246.202 598.197 245.266C598.197 244.33 598.383 243.49 598.755 242.746C599.139 241.99 599.661 241.402 600.321 240.982C600.981 240.562 601.707 240.352 602.499 240.352C603.135 240.352 603.723 240.484 604.263 240.748C604.815 241.012 605.253 241.348 605.577 241.756V241.324C605.577 241.072 605.655 240.862 605.811 240.694C605.967 240.526 606.171 240.442 606.423 240.442ZM602.751 248.596C603.315 248.596 603.813 248.452 604.245 248.164C604.689 247.876 605.031 247.48 605.271 246.976C605.523 246.472 605.649 245.902 605.649 245.266C605.649 244.642 605.523 244.078 605.271 243.574C605.031 243.07 604.689 242.674 604.245 242.386C603.813 242.086 603.315 241.936 602.751 241.936C602.187 241.936 601.683 242.08 601.239 242.368C600.807 242.656 600.465 243.052 600.213 243.556C599.973 244.06 599.853 244.63 599.853 245.266C599.853 245.902 599.973 246.472 600.213 246.976C600.465 247.48 600.807 247.876 601.239 248.164C601.683 248.452 602.187 248.596 602.751 248.596ZM617.359 240.478C617.587 240.478 617.779 240.556 617.935 240.712C618.091 240.856 618.169 241.03 618.169 241.234C618.169 241.342 618.127 241.492 618.043 241.684L614.623 249.46C614.551 249.616 614.449 249.742 614.317 249.838C614.185 249.934 614.041 249.988 613.885 250C613.693 250.024 613.513 249.988 613.345 249.892C613.189 249.796 613.069 249.652 612.985 249.46L609.565 241.684C609.505 241.504 609.475 241.354 609.475 241.234C609.475 241.042 609.553 240.868 609.709 240.712C609.865 240.556 610.069 240.478 610.321 240.478C610.501 240.478 610.663 240.526 610.807 240.622C610.951 240.706 611.065 240.838 611.149 241.018L613.867 247.336L616.585 241.018C616.753 240.658 617.011 240.478 617.359 240.478ZM628.752 244.924C628.74 245.14 628.65 245.326 628.482 245.482C628.314 245.626 628.116 245.698 627.888 245.698H621.552C621.636 246.574 621.966 247.276 622.542 247.804C623.13 248.332 623.844 248.596 624.684 248.596C625.26 248.596 625.728 248.512 626.088 248.344C626.448 248.176 626.766 247.96 627.042 247.696C627.222 247.588 627.396 247.534 627.564 247.534C627.768 247.534 627.936 247.606 628.068 247.75C628.212 247.894 628.284 248.062 628.284 248.254C628.284 248.506 628.164 248.734 627.924 248.938C627.576 249.286 627.114 249.58 626.538 249.82C625.962 250.06 625.374 250.18 624.774 250.18C623.802 250.18 622.944 249.976 622.2 249.568C621.468 249.16 620.898 248.59 620.49 247.858C620.094 247.126 619.896 246.298 619.896 245.374C619.896 244.366 620.1 243.484 620.508 242.728C620.928 241.96 621.474 241.372 622.146 240.964C622.83 240.556 623.562 240.352 624.342 240.352C625.11 240.352 625.83 240.55 626.502 240.946C627.174 241.342 627.714 241.888 628.122 242.584C628.53 243.28 628.74 244.06 628.752 244.924ZM624.342 241.936C623.67 241.936 623.088 242.128 622.596 242.512C622.104 242.884 621.78 243.466 621.624 244.258H626.934V244.114C626.874 243.478 626.586 242.956 626.07 242.548C625.566 242.14 624.99 241.936 624.342 241.936ZM384.358 272.136C384.358 272.376 384.274 272.58 384.106 272.748C383.95 272.916 383.746 273 383.494 273C383.254 273 383.05 272.916 382.882 272.748C382.726 272.58 382.648 272.376 382.648 272.136V264.342C382.648 264.102 382.726 263.898 382.882 263.73C383.05 263.562 383.254 263.478 383.494 263.478C383.746 263.478 383.95 263.562 384.106 263.73C384.274 263.898 384.358 264.102 384.358 264.342V272.136ZM383.494 262.29C383.146 262.29 382.894 262.23 382.738 262.11C382.594 261.978 382.522 261.774 382.522 261.498V261.21C382.522 260.922 382.6 260.718 382.756 260.598C382.924 260.478 383.176 260.418 383.512 260.418C383.848 260.418 384.088 260.484 384.232 260.616C384.388 260.736 384.466 260.934 384.466 261.21V261.498C384.466 261.786 384.388 261.99 384.232 262.11C384.076 262.23 383.83 262.29 383.494 262.29ZM392.162 263.352C394.322 263.352 395.402 264.648 395.402 267.24V272.136C395.402 272.376 395.318 272.58 395.15 272.748C394.994 272.916 394.79 273 394.538 273C394.298 273 394.094 272.916 393.926 272.748C393.77 272.58 393.692 272.376 393.692 272.136V267.258C393.692 266.55 393.53 265.986 393.206 265.566C392.882 265.146 392.354 264.936 391.622 264.936C391.142 264.936 390.704 265.044 390.308 265.26C389.924 265.464 389.618 265.746 389.39 266.106C389.174 266.454 389.066 266.838 389.066 267.258V272.136C389.066 272.376 388.982 272.58 388.814 272.748C388.658 272.916 388.454 273 388.202 273C387.95 273 387.746 272.922 387.59 272.766C387.434 272.598 387.356 272.388 387.356 272.136V264.432C387.356 264.192 387.434 263.988 387.59 263.82C387.758 263.652 387.962 263.568 388.202 263.568C388.454 263.568 388.658 263.652 388.814 263.82C388.982 263.988 389.066 264.192 389.066 264.432V265.062C389.378 264.582 389.81 264.18 390.362 263.856C390.926 263.52 391.526 263.352 392.162 263.352ZM402.6 263.352C403.548 263.352 404.334 263.502 404.958 263.802C405.594 264.102 405.912 264.486 405.912 264.954C405.912 265.158 405.846 265.344 405.714 265.512C405.582 265.668 405.414 265.746 405.21 265.746C405.054 265.746 404.928 265.722 404.832 265.674C404.748 265.626 404.628 265.548 404.472 265.44C404.4 265.368 404.286 265.284 404.13 265.188C403.986 265.116 403.782 265.056 403.518 265.008C403.254 264.96 403.014 264.936 402.798 264.936C402.174 264.936 401.622 265.08 401.142 265.368C400.662 265.656 400.29 266.058 400.026 266.574C399.762 267.078 399.63 267.642 399.63 268.266C399.63 268.902 399.756 269.472 400.008 269.976C400.272 270.48 400.638 270.876 401.106 271.164C401.574 271.452 402.108 271.596 402.708 271.596C403.332 271.596 403.836 271.5 404.22 271.308C404.304 271.26 404.418 271.182 404.562 271.074C404.682 270.978 404.784 270.906 404.868 270.858C404.964 270.81 405.078 270.786 405.21 270.786C405.45 270.786 405.636 270.864 405.768 271.02C405.912 271.164 405.984 271.356 405.984 271.596C405.984 271.848 405.822 272.1 405.498 272.352C405.186 272.592 404.76 272.79 404.22 272.946C403.692 273.102 403.122 273.18 402.51 273.18C401.598 273.18 400.794 272.97 400.098 272.55C399.402 272.118 398.862 271.53 398.478 270.786C398.106 270.03 397.92 269.19 397.92 268.266C397.92 267.342 398.118 266.508 398.514 265.764C398.91 265.008 399.462 264.42 400.17 264C400.878 263.568 401.688 263.352 402.6 263.352ZM412.98 263.352C413.292 263.352 413.562 263.436 413.79 263.604C414.018 263.76 414.132 263.958 414.132 264.198C414.132 264.486 414.054 264.708 413.898 264.864C413.754 265.008 413.574 265.08 413.358 265.08C413.25 265.08 413.088 265.044 412.872 264.972C412.62 264.888 412.422 264.846 412.278 264.846C411.906 264.846 411.54 264.978 411.18 265.242C410.832 265.494 410.544 265.848 410.316 266.304C410.1 266.748 409.992 267.246 409.992 267.798V272.136C409.992 272.376 409.908 272.58 409.74 272.748C409.584 272.916 409.38 273 409.128 273C408.876 273 408.672 272.922 408.516 272.766C408.36 272.598 408.282 272.388 408.282 272.136V264.432C408.282 264.192 408.36 263.988 408.516 263.82C408.684 263.652 408.888 263.568 409.128 263.568C409.38 263.568 409.584 263.652 409.74 263.82C409.908 263.988 409.992 264.192 409.992 264.432V265.35C410.256 264.762 410.652 264.288 411.18 263.928C411.708 263.556 412.308 263.364 412.98 263.352ZM424.133 267.924C424.121 268.14 424.031 268.326 423.863 268.482C423.695 268.626 423.497 268.698 423.269 268.698H416.933C417.017 269.574 417.347 270.276 417.923 270.804C418.511 271.332 419.225 271.596 420.065 271.596C420.641 271.596 421.109 271.512 421.469 271.344C421.829 271.176 422.147 270.96 422.423 270.696C422.603 270.588 422.777 270.534 422.945 270.534C423.149 270.534 423.317 270.606 423.449 270.75C423.593 270.894 423.665 271.062 423.665 271.254C423.665 271.506 423.545 271.734 423.305 271.938C422.957 272.286 422.495 272.58 421.919 272.82C421.343 273.06 420.755 273.18 420.155 273.18C419.183 273.18 418.325 272.976 417.581 272.568C416.849 272.16 416.279 271.59 415.871 270.858C415.475 270.126 415.277 269.298 415.277 268.374C415.277 267.366 415.481 266.484 415.889 265.728C416.309 264.96 416.855 264.372 417.527 263.964C418.211 263.556 418.943 263.352 419.723 263.352C420.491 263.352 421.211 263.55 421.883 263.946C422.555 264.342 423.095 264.888 423.503 265.584C423.911 266.28 424.121 267.06 424.133 267.924ZM419.723 264.936C419.051 264.936 418.469 265.128 417.977 265.512C417.485 265.884 417.161 266.466 417.005 267.258H422.315V267.114C422.255 266.478 421.967 265.956 421.451 265.548C420.947 265.14 420.371 264.936 419.723 264.936ZM434.379 263.442C434.631 263.442 434.835 263.526 434.991 263.694C435.159 263.85 435.243 264.06 435.243 264.324V272.136C435.243 272.376 435.159 272.58 434.991 272.748C434.835 272.916 434.631 273 434.379 273C434.127 273 433.923 272.922 433.767 272.766C433.611 272.598 433.533 272.388 433.533 272.136V271.668C433.221 272.088 432.795 272.448 432.255 272.748C431.715 273.036 431.133 273.18 430.509 273.18C429.693 273.18 428.949 272.97 428.277 272.55C427.617 272.13 427.095 271.548 426.711 270.804C426.339 270.048 426.153 269.202 426.153 268.266C426.153 267.33 426.339 266.49 426.711 265.746C427.095 264.99 427.617 264.402 428.277 263.982C428.937 263.562 429.663 263.352 430.455 263.352C431.091 263.352 431.679 263.484 432.219 263.748C432.771 264.012 433.209 264.348 433.533 264.756V264.324C433.533 264.072 433.611 263.862 433.767 263.694C433.923 263.526 434.127 263.442 434.379 263.442ZM430.707 271.596C431.271 271.596 431.769 271.452 432.201 271.164C432.645 270.876 432.987 270.48 433.227 269.976C433.479 269.472 433.605 268.902 433.605 268.266C433.605 267.642 433.479 267.078 433.227 266.574C432.987 266.07 432.645 265.674 432.201 265.386C431.769 265.086 431.271 264.936 430.707 264.936C430.143 264.936 429.639 265.08 429.195 265.368C428.763 265.656 428.421 266.052 428.169 266.556C427.929 267.06 427.809 267.63 427.809 268.266C427.809 268.902 427.929 269.472 428.169 269.976C428.421 270.48 428.763 270.876 429.195 271.164C429.639 271.452 430.143 271.596 430.707 271.596ZM437.786 271.524C437.678 271.356 437.624 271.194 437.624 271.038C437.624 270.798 437.75 270.594 438.002 270.426C438.122 270.342 438.26 270.3 438.416 270.3C438.632 270.3 438.83 270.39 439.01 270.57C439.37 270.978 439.754 271.284 440.162 271.488C440.582 271.692 441.08 271.794 441.656 271.794C442.112 271.782 442.514 271.68 442.862 271.488C443.21 271.284 443.384 270.96 443.384 270.516C443.384 270.108 443.204 269.796 442.844 269.58C442.496 269.364 441.98 269.166 441.296 268.986C440.624 268.806 440.066 268.62 439.622 268.428C439.178 268.224 438.8 267.936 438.488 267.564C438.188 267.18 438.038 266.682 438.038 266.07C438.038 265.53 438.188 265.056 438.488 264.648C438.8 264.24 439.208 263.922 439.712 263.694C440.228 263.466 440.786 263.352 441.386 263.352C441.962 263.352 442.532 263.46 443.096 263.676C443.672 263.892 444.14 264.222 444.5 264.666C444.644 264.834 444.716 265.008 444.716 265.188C444.716 265.38 444.62 265.566 444.428 265.746C444.308 265.854 444.158 265.908 443.978 265.908C443.762 265.908 443.588 265.836 443.456 265.692C443.204 265.404 442.892 265.182 442.52 265.026C442.16 264.87 441.758 264.792 441.314 264.792C440.858 264.792 440.468 264.888 440.144 265.08C439.832 265.26 439.676 265.572 439.676 266.016C439.688 266.436 439.868 266.748 440.216 266.952C440.576 267.156 441.122 267.354 441.854 267.546C442.49 267.714 443.018 267.894 443.438 268.086C443.858 268.278 444.212 268.566 444.5 268.95C444.788 269.322 444.932 269.814 444.932 270.426C444.932 270.99 444.77 271.482 444.446 271.902C444.122 272.31 443.696 272.628 443.168 272.856C442.652 273.072 442.1 273.18 441.512 273.18C440.756 273.18 440.054 273.048 439.406 272.784C438.77 272.52 438.23 272.1 437.786 271.524ZM455.724 267.924C455.712 268.14 455.622 268.326 455.454 268.482C455.286 268.626 455.088 268.698 454.86 268.698H448.524C448.608 269.574 448.938 270.276 449.514 270.804C450.102 271.332 450.816 271.596 451.656 271.596C452.232 271.596 452.7 271.512 453.06 271.344C453.42 271.176 453.738 270.96 454.014 270.696C454.194 270.588 454.368 270.534 454.536 270.534C454.74 270.534 454.908 270.606 455.04 270.75C455.184 270.894 455.256 271.062 455.256 271.254C455.256 271.506 455.136 271.734 454.896 271.938C454.548 272.286 454.086 272.58 453.51 272.82C452.934 273.06 452.346 273.18 451.746 273.18C450.774 273.18 449.916 272.976 449.172 272.568C448.44 272.16 447.87 271.59 447.462 270.858C447.066 270.126 446.868 269.298 446.868 268.374C446.868 267.366 447.072 266.484 447.48 265.728C447.9 264.96 448.446 264.372 449.118 263.964C449.802 263.556 450.534 263.352 451.314 263.352C452.082 263.352 452.802 263.55 453.474 263.946C454.146 264.342 454.686 264.888 455.094 265.584C455.502 266.28 455.712 267.06 455.724 267.924ZM451.314 264.936C450.642 264.936 450.06 265.128 449.568 265.512C449.076 265.884 448.752 266.466 448.596 267.258H453.906V267.114C453.846 266.478 453.558 265.956 453.042 265.548C452.538 265.14 451.962 264.936 451.314 264.936ZM465.899 259.68C466.151 259.68 466.355 259.764 466.511 259.932C466.679 260.088 466.763 260.292 466.763 260.544V272.136C466.763 272.376 466.679 272.58 466.511 272.748C466.355 272.916 466.151 273 465.899 273C465.647 273 465.443 272.922 465.287 272.766C465.131 272.598 465.053 272.388 465.053 272.136V271.632C464.753 272.064 464.327 272.43 463.775 272.73C463.235 273.03 462.653 273.18 462.029 273.18C461.213 273.18 460.475 272.97 459.815 272.55C459.155 272.13 458.633 271.548 458.249 270.804C457.865 270.048 457.673 269.202 457.673 268.266C457.673 267.33 457.859 266.49 458.231 265.746C458.615 264.99 459.137 264.402 459.797 263.982C460.457 263.562 461.183 263.352 461.975 263.352C462.611 263.352 463.199 263.484 463.739 263.748C464.279 264.012 464.717 264.354 465.053 264.774V260.544C465.053 260.292 465.131 260.088 465.287 259.932C465.443 259.764 465.647 259.68 465.899 259.68ZM462.227 271.596C462.791 271.596 463.289 271.452 463.721 271.164C464.165 270.876 464.507 270.48 464.747 269.976C464.999 269.472 465.125 268.902 465.125 268.266C465.125 267.642 464.999 267.078 464.747 266.574C464.507 266.058 464.165 265.656 463.721 265.368C463.289 265.08 462.791 264.936 462.227 264.936C461.663 264.936 461.159 265.08 460.715 265.368C460.283 265.656 459.941 266.058 459.689 266.574C459.449 267.078 459.329 267.642 459.329 268.266C459.329 268.902 459.449 269.472 459.689 269.976C459.941 270.48 460.283 270.876 460.715 271.164C461.159 271.452 461.663 271.596 462.227 271.596ZM477.934 265.242V270.606C477.934 271.206 478.204 271.506 478.744 271.506C478.828 271.506 478.942 271.488 479.086 271.452C479.23 271.404 479.344 271.38 479.428 271.38C479.584 271.38 479.716 271.446 479.824 271.578C479.932 271.71 479.986 271.878 479.986 272.082C479.986 272.334 479.842 272.55 479.554 272.73C479.266 272.91 478.942 273 478.582 273C478.186 273 477.82 272.958 477.484 272.874C477.16 272.79 476.866 272.58 476.602 272.244C476.35 271.896 476.224 271.374 476.224 270.678V265.242H475.18C474.952 265.242 474.76 265.17 474.604 265.026C474.46 264.87 474.388 264.678 474.388 264.45C474.388 264.222 474.46 264.036 474.604 263.892C474.76 263.748 474.952 263.676 475.18 263.676H476.224V262.164C476.224 261.924 476.302 261.72 476.458 261.552C476.626 261.384 476.836 261.3 477.088 261.3C477.328 261.3 477.526 261.384 477.682 261.552C477.85 261.72 477.934 261.924 477.934 262.164V263.676H479.428C479.656 263.676 479.842 263.754 479.986 263.91C480.142 264.054 480.22 264.24 480.22 264.468C480.22 264.696 480.142 264.882 479.986 265.026C479.842 265.17 479.656 265.242 479.428 265.242H477.934ZM487.454 263.406C489.566 263.406 490.622 264.714 490.622 267.33V272.136C490.622 272.376 490.538 272.58 490.37 272.748C490.214 272.916 490.01 273 489.758 273C489.518 273 489.314 272.916 489.146 272.748C488.99 272.58 488.912 272.376 488.912 272.136V267.33C488.912 265.77 488.252 264.99 486.932 264.99C486.224 264.99 485.636 265.218 485.168 265.674C484.7 266.118 484.466 266.67 484.466 267.33V272.136C484.466 272.376 484.382 272.58 484.214 272.748C484.058 272.916 483.854 273 483.602 273C483.35 273 483.146 272.922 482.99 272.766C482.834 272.598 482.756 272.388 482.756 272.136V260.544C482.756 260.304 482.834 260.1 482.99 259.932C483.158 259.764 483.362 259.68 483.602 259.68C483.854 259.68 484.058 259.764 484.214 259.932C484.382 260.1 484.466 260.304 484.466 260.544V265.098C484.766 264.63 485.186 264.234 485.726 263.91C486.266 263.574 486.842 263.406 487.454 263.406ZM502 267.924C501.988 268.14 501.898 268.326 501.73 268.482C501.562 268.626 501.364 268.698 501.136 268.698H494.8C494.884 269.574 495.214 270.276 495.79 270.804C496.378 271.332 497.092 271.596 497.932 271.596C498.508 271.596 498.976 271.512 499.336 271.344C499.696 271.176 500.014 270.96 500.29 270.696C500.47 270.588 500.644 270.534 500.812 270.534C501.016 270.534 501.184 270.606 501.316 270.75C501.46 270.894 501.532 271.062 501.532 271.254C501.532 271.506 501.412 271.734 501.172 271.938C500.824 272.286 500.362 272.58 499.786 272.82C499.21 273.06 498.622 273.18 498.022 273.18C497.05 273.18 496.192 272.976 495.448 272.568C494.716 272.16 494.146 271.59 493.738 270.858C493.342 270.126 493.144 269.298 493.144 268.374C493.144 267.366 493.348 266.484 493.756 265.728C494.176 264.96 494.722 264.372 495.394 263.964C496.078 263.556 496.81 263.352 497.59 263.352C498.358 263.352 499.078 263.55 499.75 263.946C500.422 264.342 500.962 264.888 501.37 265.584C501.778 266.28 501.988 267.06 502 267.924ZM497.59 264.936C496.918 264.936 496.336 265.128 495.844 265.512C495.352 265.884 495.028 266.466 494.872 267.258H500.182V267.114C500.122 266.478 499.834 265.956 499.318 265.548C498.814 265.14 498.238 264.936 497.59 264.936ZM506.146 272.136C506.146 272.376 506.062 272.58 505.894 272.748C505.738 272.916 505.534 273 505.282 273C505.042 273 504.838 272.916 504.67 272.748C504.514 272.58 504.436 272.376 504.436 272.136V264.342C504.436 264.102 504.514 263.898 504.67 263.73C504.838 263.562 505.042 263.478 505.282 263.478C505.534 263.478 505.738 263.562 505.894 263.73C506.062 263.898 506.146 264.102 506.146 264.342V272.136ZM505.282 262.29C504.934 262.29 504.682 262.23 504.526 262.11C504.382 261.978 504.31 261.774 504.31 261.498V261.21C504.31 260.922 504.388 260.718 504.544 260.598C504.712 260.478 504.964 260.418 505.3 260.418C505.636 260.418 505.876 260.484 506.02 260.616C506.176 260.736 506.254 260.934 506.254 261.21V261.498C506.254 261.786 506.176 261.99 506.02 262.11C505.864 262.23 505.618 262.29 505.282 262.29ZM513.842 263.352C514.154 263.352 514.424 263.436 514.652 263.604C514.88 263.76 514.994 263.958 514.994 264.198C514.994 264.486 514.916 264.708 514.76 264.864C514.616 265.008 514.436 265.08 514.22 265.08C514.112 265.08 513.95 265.044 513.734 264.972C513.482 264.888 513.284 264.846 513.14 264.846C512.768 264.846 512.402 264.978 512.042 265.242C511.694 265.494 511.406 265.848 511.178 266.304C510.962 266.748 510.854 267.246 510.854 267.798V272.136C510.854 272.376 510.77 272.58 510.602 272.748C510.446 272.916 510.242 273 509.99 273C509.738 273 509.534 272.922 509.378 272.766C509.222 272.598 509.144 272.388 509.144 272.136V264.432C509.144 264.192 509.222 263.988 509.378 263.82C509.546 263.652 509.75 263.568 509.99 263.568C510.242 263.568 510.446 263.652 510.602 263.82C510.77 263.988 510.854 264.192 510.854 264.432V265.35C511.118 264.762 511.514 264.288 512.042 263.928C512.57 263.556 513.17 263.364 513.842 263.352ZM527.386 263.406C528.202 263.406 528.94 263.616 529.6 264.036C530.26 264.444 530.776 265.02 531.148 265.764C531.532 266.508 531.724 267.348 531.724 268.284C531.724 269.22 531.532 270.06 531.148 270.804C530.776 271.536 530.26 272.112 529.6 272.532C528.94 272.952 528.214 273.162 527.422 273.162C526.798 273.162 526.216 273.024 525.676 272.748C525.136 272.472 524.698 272.136 524.362 271.74V275.736C524.362 275.976 524.278 276.18 524.11 276.348C523.954 276.516 523.75 276.6 523.498 276.6C523.258 276.6 523.054 276.516 522.886 276.348C522.73 276.192 522.652 275.988 522.652 275.736V264.414C522.652 264.162 522.73 263.952 522.886 263.784C523.042 263.616 523.246 263.532 523.498 263.532C523.75 263.532 523.954 263.616 524.11 263.784C524.278 263.952 524.362 264.162 524.362 264.414V264.936C524.65 264.516 525.07 264.156 525.622 263.856C526.174 263.556 526.762 263.406 527.386 263.406ZM527.188 271.578C527.74 271.578 528.238 271.434 528.682 271.146C529.126 270.858 529.468 270.468 529.708 269.976C529.96 269.472 530.086 268.908 530.086 268.284C530.086 267.66 529.96 267.102 529.708 266.61C529.468 266.106 529.126 265.71 528.682 265.422C528.238 265.134 527.74 264.99 527.188 264.99C526.624 264.99 526.12 265.134 525.676 265.422C525.232 265.698 524.884 266.088 524.632 266.592C524.392 267.096 524.272 267.66 524.272 268.284C524.272 268.908 524.392 269.472 524.632 269.976C524.884 270.48 525.232 270.876 525.676 271.164C526.12 271.44 526.624 271.578 527.188 271.578ZM538.946 263.352C539.258 263.352 539.528 263.436 539.756 263.604C539.984 263.76 540.098 263.958 540.098 264.198C540.098 264.486 540.02 264.708 539.864 264.864C539.72 265.008 539.54 265.08 539.324 265.08C539.216 265.08 539.054 265.044 538.838 264.972C538.586 264.888 538.388 264.846 538.244 264.846C537.872 264.846 537.506 264.978 537.146 265.242C536.798 265.494 536.51 265.848 536.282 266.304C536.066 266.748 535.958 267.246 535.958 267.798V272.136C535.958 272.376 535.874 272.58 535.706 272.748C535.55 272.916 535.346 273 535.094 273C534.842 273 534.638 272.922 534.482 272.766C534.326 272.598 534.248 272.388 534.248 272.136V264.432C534.248 264.192 534.326 263.988 534.482 263.82C534.65 263.652 534.854 263.568 535.094 263.568C535.346 263.568 535.55 263.652 535.706 263.82C535.874 263.988 535.958 264.192 535.958 264.432V265.35C536.222 264.762 536.618 264.288 537.146 263.928C537.674 263.556 538.274 263.364 538.946 263.352ZM550.747 268.284C550.747 269.22 550.537 270.06 550.117 270.804C549.697 271.548 549.121 272.13 548.389 272.55C547.669 272.97 546.871 273.18 545.995 273.18C545.119 273.18 544.315 272.97 543.583 272.55C542.863 272.13 542.293 271.548 541.873 270.804C541.453 270.06 541.243 269.22 541.243 268.284C541.243 267.348 541.453 266.502 541.873 265.746C542.293 264.99 542.863 264.402 543.583 263.982C544.315 263.562 545.119 263.352 545.995 263.352C546.871 263.352 547.669 263.562 548.389 263.982C549.121 264.402 549.697 264.99 550.117 265.746C550.537 266.502 550.747 267.348 550.747 268.284ZM549.037 268.284C549.037 267.636 548.899 267.06 548.623 266.556C548.359 266.04 547.993 265.644 547.525 265.368C547.069 265.08 546.559 264.936 545.995 264.936C545.431 264.936 544.915 265.08 544.447 265.368C543.991 265.644 543.625 266.04 543.349 266.556C543.085 267.06 542.953 267.636 542.953 268.284C542.953 268.92 543.085 269.49 543.349 269.994C543.625 270.498 543.991 270.894 544.447 271.182C544.915 271.458 545.431 271.596 545.995 271.596C546.559 271.596 547.069 271.458 547.525 271.182C547.993 270.894 548.359 270.498 548.623 269.994C548.899 269.49 549.037 268.92 549.037 268.284ZM560.925 259.68C561.177 259.68 561.381 259.764 561.537 259.932C561.705 260.088 561.789 260.292 561.789 260.544V272.136C561.789 272.376 561.705 272.58 561.537 272.748C561.381 272.916 561.177 273 560.925 273C560.673 273 560.469 272.922 560.313 272.766C560.157 272.598 560.079 272.388 560.079 272.136V271.632C559.779 272.064 559.353 272.43 558.801 272.73C558.261 273.03 557.679 273.18 557.055 273.18C556.239 273.18 555.501 272.97 554.841 272.55C554.181 272.13 553.659 271.548 553.275 270.804C552.891 270.048 552.699 269.202 552.699 268.266C552.699 267.33 552.885 266.49 553.257 265.746C553.641 264.99 554.163 264.402 554.823 263.982C555.483 263.562 556.209 263.352 557.001 263.352C557.637 263.352 558.225 263.484 558.765 263.748C559.305 264.012 559.743 264.354 560.079 264.774V260.544C560.079 260.292 560.157 260.088 560.313 259.932C560.469 259.764 560.673 259.68 560.925 259.68ZM557.253 271.596C557.817 271.596 558.315 271.452 558.747 271.164C559.191 270.876 559.533 270.48 559.773 269.976C560.025 269.472 560.151 268.902 560.151 268.266C560.151 267.642 560.025 267.078 559.773 266.574C559.533 266.058 559.191 265.656 558.747 265.368C558.315 265.08 557.817 264.936 557.253 264.936C556.689 264.936 556.185 265.08 555.741 265.368C555.309 265.656 554.967 266.058 554.715 266.574C554.475 267.078 554.355 267.642 554.355 268.266C554.355 268.902 554.475 269.472 554.715 269.976C554.967 270.48 555.309 270.876 555.741 271.164C556.185 271.452 556.689 271.596 557.253 271.596ZM572.173 263.568C572.425 263.568 572.629 263.652 572.785 263.82C572.953 263.988 573.037 264.192 573.037 264.432V269.22C573.037 270.468 572.689 271.44 571.993 272.136C571.309 272.82 570.337 273.162 569.077 273.162C567.829 273.162 566.863 272.82 566.179 272.136C565.495 271.44 565.153 270.468 565.153 269.22V264.432C565.153 264.192 565.231 263.988 565.387 263.82C565.555 263.652 565.759 263.568 565.999 263.568C566.251 263.568 566.455 263.652 566.611 263.82C566.779 263.988 566.863 264.192 566.863 264.432V269.22C566.863 270.792 567.601 271.578 569.077 271.578C569.809 271.578 570.367 271.38 570.751 270.984C571.135 270.588 571.327 270 571.327 269.22V264.432C571.327 264.192 571.405 263.988 571.561 263.82C571.729 263.652 571.933 263.568 572.173 263.568ZM580.239 263.352C581.187 263.352 581.973 263.502 582.597 263.802C583.233 264.102 583.551 264.486 583.551 264.954C583.551 265.158 583.485 265.344 583.353 265.512C583.221 265.668 583.053 265.746 582.849 265.746C582.693 265.746 582.567 265.722 582.471 265.674C582.387 265.626 582.267 265.548 582.111 265.44C582.039 265.368 581.925 265.284 581.769 265.188C581.625 265.116 581.421 265.056 581.157 265.008C580.893 264.96 580.653 264.936 580.437 264.936C579.813 264.936 579.261 265.08 578.781 265.368C578.301 265.656 577.929 266.058 577.665 266.574C577.401 267.078 577.269 267.642 577.269 268.266C577.269 268.902 577.395 269.472 577.647 269.976C577.911 270.48 578.277 270.876 578.745 271.164C579.213 271.452 579.747 271.596 580.347 271.596C580.971 271.596 581.475 271.5 581.859 271.308C581.943 271.26 582.057 271.182 582.201 271.074C582.321 270.978 582.423 270.906 582.507 270.858C582.603 270.81 582.717 270.786 582.849 270.786C583.089 270.786 583.275 270.864 583.407 271.02C583.551 271.164 583.623 271.356 583.623 271.596C583.623 271.848 583.461 272.1 583.137 272.352C582.825 272.592 582.399 272.79 581.859 272.946C581.331 273.102 580.761 273.18 580.149 273.18C579.237 273.18 578.433 272.97 577.737 272.55C577.041 272.118 576.501 271.53 576.117 270.786C575.745 270.03 575.559 269.19 575.559 268.266C575.559 267.342 575.757 266.508 576.153 265.764C576.549 265.008 577.101 264.42 577.809 264C578.517 263.568 579.327 263.352 580.239 263.352ZM588.477 265.242V270.606C588.477 271.206 588.747 271.506 589.287 271.506C589.371 271.506 589.485 271.488 589.629 271.452C589.773 271.404 589.887 271.38 589.971 271.38C590.127 271.38 590.259 271.446 590.367 271.578C590.475 271.71 590.529 271.878 590.529 272.082C590.529 272.334 590.385 272.55 590.097 272.73C589.809 272.91 589.485 273 589.125 273C588.729 273 588.363 272.958 588.027 272.874C587.703 272.79 587.409 272.58 587.145 272.244C586.893 271.896 586.767 271.374 586.767 270.678V265.242H585.723C585.495 265.242 585.303 265.17 585.147 265.026C585.003 264.87 584.931 264.678 584.931 264.45C584.931 264.222 585.003 264.036 585.147 263.892C585.303 263.748 585.495 263.676 585.723 263.676H586.767V262.164C586.767 261.924 586.845 261.72 587.001 261.552C587.169 261.384 587.379 261.3 587.631 261.3C587.871 261.3 588.069 261.384 588.225 261.552C588.393 261.72 588.477 261.924 588.477 262.164V263.676H589.971C590.199 263.676 590.385 263.754 590.529 263.91C590.685 264.054 590.763 264.24 590.763 264.468C590.763 264.696 590.685 264.882 590.529 265.026C590.385 265.17 590.199 265.242 589.971 265.242H588.477ZM594.919 272.136C594.919 272.376 594.835 272.58 594.667 272.748C594.511 272.916 594.307 273 594.055 273C593.815 273 593.611 272.916 593.443 272.748C593.287 272.58 593.209 272.376 593.209 272.136V264.342C593.209 264.102 593.287 263.898 593.443 263.73C593.611 263.562 593.815 263.478 594.055 263.478C594.307 263.478 594.511 263.562 594.667 263.73C594.835 263.898 594.919 264.102 594.919 264.342V272.136ZM594.055 262.29C593.707 262.29 593.455 262.23 593.299 262.11C593.155 261.978 593.083 261.774 593.083 261.498V261.21C593.083 260.922 593.161 260.718 593.317 260.598C593.485 260.478 593.737 260.418 594.073 260.418C594.409 260.418 594.649 260.484 594.793 260.616C594.949 260.736 595.027 260.934 595.027 261.21V261.498C595.027 261.786 594.949 261.99 594.793 262.11C594.637 262.23 594.391 262.29 594.055 262.29ZM605.117 263.478C605.345 263.478 605.537 263.556 605.693 263.712C605.849 263.856 605.927 264.03 605.927 264.234C605.927 264.342 605.885 264.492 605.801 264.684L602.381 272.46C602.309 272.616 602.207 272.742 602.075 272.838C601.943 272.934 601.799 272.988 601.643 273C601.451 273.024 601.271 272.988 601.103 272.892C600.947 272.796 600.827 272.652 600.743 272.46L597.323 264.684C597.263 264.504 597.233 264.354 597.233 264.234C597.233 264.042 597.311 263.868 597.467 263.712C597.623 263.556 597.827 263.478 598.079 263.478C598.259 263.478 598.421 263.526 598.565 263.622C598.709 263.706 598.823 263.838 598.907 264.018L601.625 270.336L604.343 264.018C604.511 263.658 604.769 263.478 605.117 263.478ZM609.938 272.136C609.938 272.376 609.854 272.58 609.686 272.748C609.53 272.916 609.326 273 609.074 273C608.834 273 608.63 272.916 608.462 272.748C608.306 272.58 608.228 272.376 608.228 272.136V264.342C608.228 264.102 608.306 263.898 608.462 263.73C608.63 263.562 608.834 263.478 609.074 263.478C609.326 263.478 609.53 263.562 609.686 263.73C609.854 263.898 609.938 264.102 609.938 264.342V272.136ZM609.074 262.29C608.726 262.29 608.474 262.23 608.318 262.11C608.174 261.978 608.102 261.774 608.102 261.498V261.21C608.102 260.922 608.18 260.718 608.336 260.598C608.504 260.478 608.756 260.418 609.092 260.418C609.428 260.418 609.668 260.484 609.812 260.616C609.968 260.736 610.046 260.934 610.046 261.21V261.498C610.046 261.786 609.968 261.99 609.812 262.11C609.656 262.23 609.41 262.29 609.074 262.29ZM615.492 265.242V270.606C615.492 271.206 615.762 271.506 616.302 271.506C616.386 271.506 616.5 271.488 616.644 271.452C616.788 271.404 616.902 271.38 616.986 271.38C617.142 271.38 617.274 271.446 617.382 271.578C617.49 271.71 617.544 271.878 617.544 272.082C617.544 272.334 617.4 272.55 617.112 272.73C616.824 272.91 616.5 273 616.14 273C615.744 273 615.378 272.958 615.042 272.874C614.718 272.79 614.424 272.58 614.16 272.244C613.908 271.896 613.782 271.374 613.782 270.678V265.242H612.738C612.51 265.242 612.318 265.17 612.162 265.026C612.018 264.87 611.946 264.678 611.946 264.45C611.946 264.222 612.018 264.036 612.162 263.892C612.318 263.748 612.51 263.676 612.738 263.676H613.782V262.164C613.782 261.924 613.86 261.72 614.016 261.552C614.184 261.384 614.394 261.3 614.646 261.3C614.886 261.3 615.084 261.384 615.24 261.552C615.408 261.72 615.492 261.924 615.492 262.164V263.676H616.986C617.214 263.676 617.4 263.754 617.544 263.91C617.7 264.054 617.778 264.24 617.778 264.468C617.778 264.696 617.7 264.882 617.544 265.026C617.4 265.17 617.214 265.242 616.986 265.242H615.492ZM627.334 263.478C627.586 263.478 627.79 263.562 627.946 263.73C628.114 263.898 628.198 264.102 628.198 264.342V272.118C628.198 273.618 627.784 274.74 626.956 275.484C626.128 276.228 625.036 276.6 623.68 276.6C623.236 276.6 622.798 276.558 622.366 276.474C621.934 276.39 621.58 276.276 621.304 276.132C620.86 275.928 620.638 275.652 620.638 275.304C620.638 275.244 620.65 275.166 620.674 275.07C620.746 274.866 620.848 274.71 620.98 274.602C621.112 274.494 621.262 274.44 621.43 274.44C621.526 274.44 621.616 274.458 621.7 274.494C622.072 274.662 622.402 274.794 622.69 274.89C622.978 274.986 623.314 275.034 623.698 275.034C625.558 275.034 626.488 274.08 626.488 272.172V271.812C626.164 272.244 625.744 272.58 625.228 272.82C624.724 273.06 624.142 273.18 623.482 273.18C622.486 273.18 621.706 272.862 621.142 272.226C620.59 271.59 620.314 270.756 620.314 269.724V264.342C620.314 264.09 620.392 263.886 620.548 263.73C620.704 263.562 620.908 263.478 621.16 263.478C621.412 263.478 621.616 263.562 621.772 263.73C621.94 263.898 622.024 264.102 622.024 264.342V269.274C622.024 270.066 622.198 270.654 622.546 271.038C622.894 271.41 623.422 271.596 624.13 271.596C624.814 271.596 625.378 271.38 625.822 270.948C626.266 270.516 626.488 269.958 626.488 269.274V264.342C626.488 264.09 626.566 263.886 626.722 263.73C626.878 263.562 627.082 263.478 627.334 263.478Z" fill="white"/>
<path d="M822.192 183.736C823.984 183.736 825.648 184.152 827.184 184.984C828.752 185.816 830 187.032 830.928 188.632C831.888 190.232 832.368 192.12 832.368 194.296C832.368 196.472 831.84 198.408 830.784 200.104C829.76 201.8 828.352 203.128 826.56 204.088C824.768 205.016 822.784 205.48 820.608 205.48C819.232 205.48 817.904 205.256 816.624 204.808C815.344 204.36 814.256 203.688 813.36 202.792C812.912 202.472 812.688 202.088 812.688 201.64C812.688 201.256 812.832 200.904 813.12 200.584C813.408 200.232 813.744 200.056 814.128 200.056C814.512 200.056 814.912 200.232 815.328 200.584C816.672 202.024 818.528 202.744 820.896 202.744C822.432 202.744 823.856 202.392 825.168 201.688C826.48 200.984 827.52 199.992 828.288 198.712C829.056 197.432 829.44 195.992 829.44 194.392C829.44 192.632 829.04 191.16 828.24 189.976C827.472 188.792 826.448 187.928 825.168 187.384C823.92 186.808 822.592 186.52 821.184 186.52C820.8 186.52 820.304 186.584 819.696 186.712C819.088 186.808 818.704 186.856 818.544 186.856C818.16 186.856 817.84 186.728 817.584 186.472C817.36 186.184 817.248 185.832 817.248 185.416C817.248 185 817.408 184.632 817.728 184.312L826.896 174.136H813.552C813.168 174.136 812.832 174.008 812.544 173.752C812.288 173.496 812.16 173.16 812.16 172.744C812.16 172.36 812.288 172.04 812.544 171.784C812.832 171.528 813.168 171.4 813.552 171.4H829.68C830.192 171.4 830.56 171.56 830.784 171.88C831.04 172.168 831.168 172.504 831.168 172.888C831.168 173.272 831.008 173.624 830.688 173.944L821.904 183.736H822.192ZM846.65 171.4C847.002 171.432 847.29 171.592 847.514 171.88C847.77 172.136 847.898 172.456 847.898 172.84V203.56C847.898 203.976 847.738 204.328 847.418 204.616C847.13 204.872 846.762 205 846.314 205C845.898 205 845.546 204.872 845.258 204.616C844.97 204.328 844.826 203.976 844.826 203.56V175.48L838.826 179.032C838.602 179.16 838.378 179.224 838.154 179.224C837.738 179.224 837.37 179.064 837.05 178.744C836.762 178.424 836.618 178.072 836.618 177.688C836.618 177.464 836.682 177.24 836.81 177.016C836.97 176.792 837.162 176.616 837.386 176.488L845.498 171.592C845.818 171.4 846.202 171.336 846.65 171.4ZM877.466 202.216C877.85 202.216 878.17 202.36 878.426 202.648C878.714 202.904 878.858 203.224 878.858 203.608C878.858 204.024 878.714 204.36 878.426 204.616C878.17 204.872 877.85 205 877.466 205H859.466C859.018 205 858.65 204.872 858.362 204.616C858.074 204.36 857.93 204.008 857.93 203.56C857.93 203.208 858.058 202.872 858.314 202.552L869.402 190.312C871.194 188.392 872.522 186.68 873.386 185.176C874.25 183.64 874.682 182.136 874.682 180.664C874.682 178.488 874.026 176.776 872.714 175.528C871.402 174.28 869.578 173.656 867.242 173.656C865.674 173.656 864.266 174.04 863.018 174.808C861.802 175.544 860.89 176.68 860.282 178.216C859.93 178.792 859.514 179.08 859.034 179.08C858.682 179.08 858.346 178.952 858.026 178.696C857.706 178.44 857.546 178.152 857.546 177.832C857.546 177.64 857.61 177.416 857.738 177.16C857.866 176.904 858.026 176.648 858.218 176.392C859.05 174.664 860.298 173.32 861.962 172.36C863.626 171.4 865.45 170.92 867.434 170.92C870.666 170.92 873.194 171.8 875.018 173.56C876.842 175.32 877.754 177.624 877.754 180.472C877.754 182.232 877.274 184.04 876.314 185.896C875.354 187.72 873.77 189.848 871.562 192.28L862.73 202.216H877.466ZM894.668 183.736C896.46 183.736 898.124 184.152 899.66 184.984C901.228 185.816 902.476 187.032 903.404 188.632C904.364 190.232 904.844 192.12 904.844 194.296C904.844 196.472 904.316 198.408 903.26 200.104C902.236 201.8 900.828 203.128 899.036 204.088C897.244 205.016 895.26 205.48 893.084 205.48C891.708 205.48 890.38 205.256 889.1 204.808C887.82 204.36 886.732 203.688 885.836 202.792C885.388 202.472 885.164 202.088 885.164 201.64C885.164 201.256 885.308 200.904 885.596 200.584C885.884 200.232 886.22 200.056 886.604 200.056C886.988 200.056 887.388 200.232 887.804 200.584C889.148 202.024 891.004 202.744 893.372 202.744C894.908 202.744 896.332 202.392 897.644 201.688C898.956 200.984 899.996 199.992 900.764 198.712C901.532 197.432 901.916 195.992 901.916 194.392C901.916 192.632 901.516 191.16 900.716 189.976C899.948 188.792 898.924 187.928 897.644 187.384C896.396 186.808 895.068 186.52 893.66 186.52C893.276 186.52 892.78 186.584 892.172 186.712C891.564 186.808 891.18 186.856 891.02 186.856C890.636 186.856 890.316 186.728 890.06 186.472C889.836 186.184 889.724 185.832 889.724 185.416C889.724 185 889.884 184.632 890.204 184.312L899.372 174.136H886.028C885.644 174.136 885.308 174.008 885.02 173.752C884.764 173.496 884.636 173.16 884.636 172.744C884.636 172.36 884.764 172.04 885.02 171.784C885.308 171.528 885.644 171.4 886.028 171.4H902.156C902.668 171.4 903.036 171.56 903.26 171.88C903.516 172.168 903.644 172.504 903.644 172.888C903.644 173.272 903.484 173.624 903.164 173.944L894.38 183.736H894.668Z" fill="#5E80FF"/>
<path d="M820.422 237.382C820.674 237.382 820.872 237.466 821.016 237.634C821.172 237.79 821.25 237.994 821.25 238.246V245.158C821.25 246.106 821.04 246.958 820.62 247.714C820.2 248.47 819.618 249.064 818.874 249.496C818.142 249.916 817.314 250.126 816.39 250.126C815.454 250.126 814.614 249.916 813.87 249.496C813.126 249.064 812.544 248.47 812.124 247.714C811.704 246.958 811.494 246.106 811.494 245.158V238.246C811.494 237.994 811.578 237.79 811.746 237.634C811.914 237.466 812.13 237.382 812.394 237.382C812.622 237.382 812.82 237.466 812.988 237.634C813.168 237.802 813.258 238.006 813.258 238.246V245.158C813.258 245.782 813.402 246.346 813.69 246.85C813.978 247.342 814.362 247.726 814.842 248.002C815.322 248.278 815.838 248.416 816.39 248.416C816.966 248.416 817.5 248.278 817.992 248.002C818.484 247.726 818.874 247.342 819.162 246.85C819.462 246.346 819.612 245.782 819.612 245.158V238.246C819.612 237.994 819.684 237.79 819.828 237.634C819.972 237.466 820.17 237.382 820.422 237.382ZM824.022 248.524C823.914 248.356 823.86 248.194 823.86 248.038C823.86 247.798 823.986 247.594 824.238 247.426C824.358 247.342 824.496 247.3 824.652 247.3C824.868 247.3 825.066 247.39 825.246 247.57C825.606 247.978 825.99 248.284 826.398 248.488C826.818 248.692 827.316 248.794 827.892 248.794C828.348 248.782 828.75 248.68 829.098 248.488C829.446 248.284 829.62 247.96 829.62 247.516C829.62 247.108 829.44 246.796 829.08 246.58C828.732 246.364 828.216 246.166 827.532 245.986C826.86 245.806 826.302 245.62 825.858 245.428C825.414 245.224 825.036 244.936 824.724 244.564C824.424 244.18 824.274 243.682 824.274 243.07C824.274 242.53 824.424 242.056 824.724 241.648C825.036 241.24 825.444 240.922 825.948 240.694C826.464 240.466 827.022 240.352 827.622 240.352C828.198 240.352 828.768 240.46 829.332 240.676C829.908 240.892 830.376 241.222 830.736 241.666C830.88 241.834 830.952 242.008 830.952 242.188C830.952 242.38 830.856 242.566 830.664 242.746C830.544 242.854 830.394 242.908 830.214 242.908C829.998 242.908 829.824 242.836 829.692 242.692C829.44 242.404 829.128 242.182 828.756 242.026C828.396 241.87 827.994 241.792 827.55 241.792C827.094 241.792 826.704 241.888 826.38 242.08C826.068 242.26 825.912 242.572 825.912 243.016C825.924 243.436 826.104 243.748 826.452 243.952C826.812 244.156 827.358 244.354 828.09 244.546C828.726 244.714 829.254 244.894 829.674 245.086C830.094 245.278 830.448 245.566 830.736 245.95C831.024 246.322 831.168 246.814 831.168 247.426C831.168 247.99 831.006 248.482 830.682 248.902C830.358 249.31 829.932 249.628 829.404 249.856C828.888 250.072 828.336 250.18 827.748 250.18C826.992 250.18 826.29 250.048 825.642 249.784C825.006 249.52 824.466 249.1 824.022 248.524ZM841.96 244.924C841.948 245.14 841.858 245.326 841.69 245.482C841.522 245.626 841.324 245.698 841.096 245.698H834.76C834.844 246.574 835.174 247.276 835.75 247.804C836.338 248.332 837.052 248.596 837.892 248.596C838.468 248.596 838.936 248.512 839.296 248.344C839.656 248.176 839.974 247.96 840.25 247.696C840.43 247.588 840.604 247.534 840.772 247.534C840.976 247.534 841.144 247.606 841.276 247.75C841.42 247.894 841.492 248.062 841.492 248.254C841.492 248.506 841.372 248.734 841.132 248.938C840.784 249.286 840.322 249.58 839.746 249.82C839.17 250.06 838.582 250.18 837.982 250.18C837.01 250.18 836.152 249.976 835.408 249.568C834.676 249.16 834.106 248.59 833.698 247.858C833.302 247.126 833.104 246.298 833.104 245.374C833.104 244.366 833.308 243.484 833.716 242.728C834.136 241.96 834.682 241.372 835.354 240.964C836.038 240.556 836.77 240.352 837.55 240.352C838.318 240.352 839.038 240.55 839.71 240.946C840.382 241.342 840.922 241.888 841.33 242.584C841.738 243.28 841.948 244.06 841.96 244.924ZM837.55 241.936C836.878 241.936 836.296 242.128 835.804 242.512C835.312 242.884 834.988 243.466 834.832 244.258H840.142V244.114C840.082 243.478 839.794 242.956 839.278 242.548C838.774 242.14 838.198 241.936 837.55 241.936ZM849.184 240.352C849.496 240.352 849.766 240.436 849.994 240.604C850.222 240.76 850.336 240.958 850.336 241.198C850.336 241.486 850.258 241.708 850.102 241.864C849.958 242.008 849.778 242.08 849.562 242.08C849.454 242.08 849.292 242.044 849.076 241.972C848.824 241.888 848.626 241.846 848.482 241.846C848.11 241.846 847.744 241.978 847.384 242.242C847.036 242.494 846.748 242.848 846.52 243.304C846.304 243.748 846.196 244.246 846.196 244.798V249.136C846.196 249.376 846.112 249.58 845.944 249.748C845.788 249.916 845.584 250 845.332 250C845.08 250 844.876 249.922 844.72 249.766C844.564 249.598 844.486 249.388 844.486 249.136V241.432C844.486 241.192 844.564 240.988 844.72 240.82C844.888 240.652 845.092 240.568 845.332 240.568C845.584 240.568 845.788 240.652 845.944 240.82C846.112 240.988 846.196 241.192 846.196 241.432V242.35C846.46 241.762 846.856 241.288 847.384 240.928C847.912 240.556 848.512 240.364 849.184 240.352ZM851.921 248.524C851.813 248.356 851.759 248.194 851.759 248.038C851.759 247.798 851.885 247.594 852.137 247.426C852.257 247.342 852.395 247.3 852.551 247.3C852.767 247.3 852.965 247.39 853.145 247.57C853.505 247.978 853.889 248.284 854.297 248.488C854.717 248.692 855.215 248.794 855.791 248.794C856.247 248.782 856.649 248.68 856.997 248.488C857.345 248.284 857.519 247.96 857.519 247.516C857.519 247.108 857.339 246.796 856.979 246.58C856.631 246.364 856.115 246.166 855.431 245.986C854.759 245.806 854.201 245.62 853.757 245.428C853.313 245.224 852.935 244.936 852.623 244.564C852.323 244.18 852.173 243.682 852.173 243.07C852.173 242.53 852.323 242.056 852.623 241.648C852.935 241.24 853.343 240.922 853.847 240.694C854.363 240.466 854.921 240.352 855.521 240.352C856.097 240.352 856.667 240.46 857.231 240.676C857.807 240.892 858.275 241.222 858.635 241.666C858.779 241.834 858.851 242.008 858.851 242.188C858.851 242.38 858.755 242.566 858.563 242.746C858.443 242.854 858.293 242.908 858.113 242.908C857.897 242.908 857.723 242.836 857.591 242.692C857.339 242.404 857.027 242.182 856.655 242.026C856.295 241.87 855.893 241.792 855.449 241.792C854.993 241.792 854.603 241.888 854.279 242.08C853.967 242.26 853.811 242.572 853.811 243.016C853.823 243.436 854.003 243.748 854.351 243.952C854.711 244.156 855.257 244.354 855.989 244.546C856.625 244.714 857.153 244.894 857.573 245.086C857.993 245.278 858.347 245.566 858.635 245.95C858.923 246.322 859.067 246.814 859.067 247.426C859.067 247.99 858.905 248.482 858.581 248.902C858.257 249.31 857.831 249.628 857.303 249.856C856.787 250.072 856.235 250.18 855.647 250.18C854.891 250.18 854.189 250.048 853.541 249.784C852.905 249.52 852.365 249.1 851.921 248.524ZM878.128 240.478C878.356 240.478 878.548 240.562 878.704 240.73C878.872 240.886 878.956 241.09 878.956 241.342C878.956 241.426 878.932 241.54 878.884 241.684L876.13 249.46C876.058 249.652 875.938 249.796 875.77 249.892C875.602 249.988 875.422 250.024 875.23 250C874.906 249.976 874.66 249.796 874.492 249.46L872.62 244.564L870.892 249.46C870.82 249.628 870.718 249.76 870.586 249.856C870.454 249.94 870.31 249.988 870.154 250C869.974 250.024 869.794 249.988 869.614 249.892C869.446 249.784 869.332 249.64 869.272 249.46L866.482 241.684C866.446 241.576 866.428 241.462 866.428 241.342C866.428 241.102 866.506 240.898 866.662 240.73C866.818 240.562 867.022 240.478 867.274 240.478C867.682 240.478 867.946 240.658 868.066 241.018L870.208 247.084L871.918 242.602C872.062 242.242 872.326 242.062 872.71 242.062C873.07 242.062 873.316 242.242 873.448 242.602L875.194 247.012L877.3 241.018C877.432 240.658 877.708 240.478 878.128 240.478ZM886.043 240.406C888.155 240.406 889.211 241.714 889.211 244.33V249.136C889.211 249.376 889.127 249.58 888.959 249.748C888.803 249.916 888.599 250 888.347 250C888.107 250 887.903 249.916 887.735 249.748C887.579 249.58 887.501 249.376 887.501 249.136V244.33C887.501 242.77 886.841 241.99 885.521 241.99C884.813 241.99 884.225 242.218 883.757 242.674C883.289 243.118 883.055 243.67 883.055 244.33V249.136C883.055 249.376 882.971 249.58 882.803 249.748C882.647 249.916 882.443 250 882.191 250C881.939 250 881.735 249.922 881.579 249.766C881.423 249.598 881.345 249.388 881.345 249.136V237.544C881.345 237.304 881.423 237.1 881.579 236.932C881.747 236.764 881.951 236.68 882.191 236.68C882.443 236.68 882.647 236.764 882.803 236.932C882.971 237.1 883.055 237.304 883.055 237.544V242.098C883.355 241.63 883.775 241.234 884.315 240.91C884.855 240.574 885.431 240.406 886.043 240.406ZM901.237 245.284C901.237 246.22 901.027 247.06 900.607 247.804C900.187 248.548 899.611 249.13 898.879 249.55C898.159 249.97 897.361 250.18 896.485 250.18C895.609 250.18 894.805 249.97 894.073 249.55C893.353 249.13 892.783 248.548 892.363 247.804C891.943 247.06 891.733 246.22 891.733 245.284C891.733 244.348 891.943 243.502 892.363 242.746C892.783 241.99 893.353 241.402 894.073 240.982C894.805 240.562 895.609 240.352 896.485 240.352C897.361 240.352 898.159 240.562 898.879 240.982C899.611 241.402 900.187 241.99 900.607 242.746C901.027 243.502 901.237 244.348 901.237 245.284ZM899.527 245.284C899.527 244.636 899.389 244.06 899.113 243.556C898.849 243.04 898.483 242.644 898.015 242.368C897.559 242.08 897.049 241.936 896.485 241.936C895.921 241.936 895.405 242.08 894.937 242.368C894.481 242.644 894.115 243.04 893.839 243.556C893.575 244.06 893.443 244.636 893.443 245.284C893.443 245.92 893.575 246.49 893.839 246.994C894.115 247.498 894.481 247.894 894.937 248.182C895.405 248.458 895.921 248.596 896.485 248.596C897.049 248.596 897.559 248.458 898.015 248.182C898.483 247.894 898.849 247.498 899.113 246.994C899.389 246.49 899.527 245.92 899.527 245.284ZM913.995 240.406C916.107 240.406 917.163 241.714 917.163 244.33V249.136C917.163 249.376 917.079 249.58 916.911 249.748C916.755 249.916 916.551 250 916.299 250C916.059 250 915.855 249.916 915.687 249.748C915.531 249.58 915.453 249.376 915.453 249.136V244.33C915.453 242.77 914.793 241.99 913.473 241.99C912.765 241.99 912.177 242.218 911.709 242.674C911.241 243.118 911.007 243.67 911.007 244.33V249.136C911.007 249.376 910.923 249.58 910.755 249.748C910.599 249.916 910.395 250 910.143 250C909.891 250 909.687 249.922 909.531 249.766C909.375 249.598 909.297 249.388 909.297 249.136V237.544C909.297 237.304 909.375 237.1 909.531 236.932C909.699 236.764 909.903 236.68 910.143 236.68C910.395 236.68 910.599 236.764 910.755 236.932C910.923 237.1 911.007 237.304 911.007 237.544V242.098C911.307 241.63 911.727 241.234 912.267 240.91C912.807 240.574 913.383 240.406 913.995 240.406ZM927.911 240.442C928.163 240.442 928.367 240.526 928.523 240.694C928.691 240.85 928.775 241.06 928.775 241.324V249.136C928.775 249.376 928.691 249.58 928.523 249.748C928.367 249.916 928.163 250 927.911 250C927.659 250 927.455 249.922 927.299 249.766C927.143 249.598 927.065 249.388 927.065 249.136V248.668C926.753 249.088 926.327 249.448 925.787 249.748C925.247 250.036 924.665 250.18 924.041 250.18C923.225 250.18 922.481 249.97 921.809 249.55C921.149 249.13 920.627 248.548 920.243 247.804C919.871 247.048 919.685 246.202 919.685 245.266C919.685 244.33 919.871 243.49 920.243 242.746C920.627 241.99 921.149 241.402 921.809 240.982C922.469 240.562 923.195 240.352 923.987 240.352C924.623 240.352 925.211 240.484 925.751 240.748C926.303 241.012 926.741 241.348 927.065 241.756V241.324C927.065 241.072 927.143 240.862 927.299 240.694C927.455 240.526 927.659 240.442 927.911 240.442ZM924.239 248.596C924.803 248.596 925.301 248.452 925.733 248.164C926.177 247.876 926.519 247.48 926.759 246.976C927.011 246.472 927.137 245.902 927.137 245.266C927.137 244.642 927.011 244.078 926.759 243.574C926.519 243.07 926.177 242.674 925.733 242.386C925.301 242.086 924.803 241.936 924.239 241.936C923.675 241.936 923.171 242.08 922.727 242.368C922.295 242.656 921.953 243.052 921.701 243.556C921.461 244.06 921.341 244.63 921.341 245.266C921.341 245.902 921.461 246.472 921.701 246.976C921.953 247.48 922.295 247.876 922.727 248.164C923.171 248.452 923.675 248.596 924.239 248.596ZM938.847 240.478C939.075 240.478 939.267 240.556 939.423 240.712C939.579 240.856 939.657 241.03 939.657 241.234C939.657 241.342 939.615 241.492 939.531 241.684L936.111 249.46C936.039 249.616 935.937 249.742 935.805 249.838C935.673 249.934 935.529 249.988 935.373 250C935.181 250.024 935.001 249.988 934.833 249.892C934.677 249.796 934.557 249.652 934.473 249.46L931.053 241.684C930.993 241.504 930.963 241.354 930.963 241.234C930.963 241.042 931.041 240.868 931.197 240.712C931.353 240.556 931.557 240.478 931.809 240.478C931.989 240.478 932.151 240.526 932.295 240.622C932.439 240.706 932.553 240.838 932.637 241.018L935.355 247.336L938.073 241.018C938.241 240.658 938.499 240.478 938.847 240.478ZM950.24 244.924C950.228 245.14 950.138 245.326 949.97 245.482C949.802 245.626 949.604 245.698 949.376 245.698H943.04C943.124 246.574 943.454 247.276 944.03 247.804C944.618 248.332 945.332 248.596 946.172 248.596C946.748 248.596 947.216 248.512 947.576 248.344C947.936 248.176 948.254 247.96 948.53 247.696C948.71 247.588 948.884 247.534 949.052 247.534C949.256 247.534 949.424 247.606 949.556 247.75C949.7 247.894 949.772 248.062 949.772 248.254C949.772 248.506 949.652 248.734 949.412 248.938C949.064 249.286 948.602 249.58 948.026 249.82C947.45 250.06 946.862 250.18 946.262 250.18C945.29 250.18 944.432 249.976 943.688 249.568C942.956 249.16 942.386 248.59 941.978 247.858C941.582 247.126 941.384 246.298 941.384 245.374C941.384 244.366 941.588 243.484 941.996 242.728C942.416 241.96 942.962 241.372 943.634 240.964C944.318 240.556 945.05 240.352 945.83 240.352C946.598 240.352 947.318 240.55 947.99 240.946C948.662 241.342 949.202 241.888 949.61 242.584C950.018 243.28 950.228 244.06 950.24 244.924ZM945.83 241.936C945.158 241.936 944.576 242.128 944.084 242.512C943.592 242.884 943.268 243.466 943.112 244.258H948.422V244.114C948.362 243.478 948.074 242.956 947.558 242.548C947.054 242.14 946.478 241.936 945.83 241.936ZM965.318 240.568C965.57 240.568 965.774 240.652 965.93 240.82C966.098 240.988 966.182 241.192 966.182 241.432V246.22C966.182 247.468 965.834 248.44 965.138 249.136C964.454 249.82 963.482 250.162 962.222 250.162C960.974 250.162 960.008 249.82 959.324 249.136C958.64 248.44 958.298 247.468 958.298 246.22V241.432C958.298 241.192 958.376 240.988 958.532 240.82C958.7 240.652 958.904 240.568 959.144 240.568C959.396 240.568 959.6 240.652 959.756 240.82C959.924 240.988 960.008 241.192 960.008 241.432V246.22C960.008 247.792 960.746 248.578 962.222 248.578C962.954 248.578 963.512 248.38 963.896 247.984C964.28 247.588 964.472 247 964.472 246.22V241.432C964.472 241.192 964.55 240.988 964.706 240.82C964.874 240.652 965.078 240.568 965.318 240.568ZM968.739 248.524C968.631 248.356 968.577 248.194 968.577 248.038C968.577 247.798 968.703 247.594 968.955 247.426C969.075 247.342 969.213 247.3 969.369 247.3C969.585 247.3 969.783 247.39 969.963 247.57C970.323 247.978 970.707 248.284 971.115 248.488C971.535 248.692 972.033 248.794 972.609 248.794C973.065 248.782 973.467 248.68 973.815 248.488C974.163 248.284 974.337 247.96 974.337 247.516C974.337 247.108 974.157 246.796 973.797 246.58C973.449 246.364 972.933 246.166 972.249 245.986C971.577 245.806 971.019 245.62 970.575 245.428C970.131 245.224 969.753 244.936 969.441 244.564C969.141 244.18 968.991 243.682 968.991 243.07C968.991 242.53 969.141 242.056 969.441 241.648C969.753 241.24 970.161 240.922 970.665 240.694C971.181 240.466 971.739 240.352 972.339 240.352C972.915 240.352 973.485 240.46 974.049 240.676C974.625 240.892 975.093 241.222 975.453 241.666C975.597 241.834 975.669 242.008 975.669 242.188C975.669 242.38 975.573 242.566 975.381 242.746C975.261 242.854 975.111 242.908 974.931 242.908C974.715 242.908 974.541 242.836 974.409 242.692C974.157 242.404 973.845 242.182 973.473 242.026C973.113 241.87 972.711 241.792 972.267 241.792C971.811 241.792 971.421 241.888 971.097 242.08C970.785 242.26 970.629 242.572 970.629 243.016C970.641 243.436 970.821 243.748 971.169 243.952C971.529 244.156 972.075 244.354 972.807 244.546C973.443 244.714 973.971 244.894 974.391 245.086C974.811 245.278 975.165 245.566 975.453 245.95C975.741 246.322 975.885 246.814 975.885 247.426C975.885 247.99 975.723 248.482 975.399 248.902C975.075 249.31 974.649 249.628 974.121 249.856C973.605 250.072 973.053 250.18 972.465 250.18C971.709 250.18 971.007 250.048 970.359 249.784C969.723 249.52 969.183 249.1 968.739 248.524ZM986.677 244.924C986.665 245.14 986.575 245.326 986.407 245.482C986.239 245.626 986.041 245.698 985.813 245.698H979.477C979.561 246.574 979.891 247.276 980.467 247.804C981.055 248.332 981.769 248.596 982.609 248.596C983.185 248.596 983.653 248.512 984.013 248.344C984.373 248.176 984.691 247.96 984.967 247.696C985.147 247.588 985.321 247.534 985.489 247.534C985.693 247.534 985.861 247.606 985.993 247.75C986.137 247.894 986.209 248.062 986.209 248.254C986.209 248.506 986.089 248.734 985.849 248.938C985.501 249.286 985.039 249.58 984.463 249.82C983.887 250.06 983.299 250.18 982.699 250.18C981.727 250.18 980.869 249.976 980.125 249.568C979.393 249.16 978.823 248.59 978.415 247.858C978.019 247.126 977.821 246.298 977.821 245.374C977.821 244.366 978.025 243.484 978.433 242.728C978.853 241.96 979.399 241.372 980.071 240.964C980.755 240.556 981.487 240.352 982.267 240.352C983.035 240.352 983.755 240.55 984.427 240.946C985.099 241.342 985.639 241.888 986.047 242.584C986.455 243.28 986.665 244.06 986.677 244.924ZM982.267 241.936C981.595 241.936 981.013 242.128 980.521 242.512C980.029 242.884 979.705 243.466 979.549 244.258H984.859V244.114C984.799 243.478 984.511 242.956 983.995 242.548C983.491 242.14 982.915 241.936 982.267 241.936ZM996.853 236.68C997.105 236.68 997.309 236.764 997.465 236.932C997.633 237.088 997.717 237.292 997.717 237.544V249.136C997.717 249.376 997.633 249.58 997.465 249.748C997.309 249.916 997.105 250 996.853 250C996.601 250 996.397 249.922 996.241 249.766C996.085 249.598 996.007 249.388 996.007 249.136V248.632C995.707 249.064 995.281 249.43 994.729 249.73C994.189 250.03 993.607 250.18 992.983 250.18C992.167 250.18 991.429 249.97 990.769 249.55C990.109 249.13 989.587 248.548 989.203 247.804C988.819 247.048 988.627 246.202 988.627 245.266C988.627 244.33 988.813 243.49 989.185 242.746C989.569 241.99 990.091 241.402 990.751 240.982C991.411 240.562 992.137 240.352 992.929 240.352C993.565 240.352 994.153 240.484 994.693 240.748C995.233 241.012 995.671 241.354 996.007 241.774V237.544C996.007 237.292 996.085 237.088 996.241 236.932C996.397 236.764 996.601 236.68 996.853 236.68ZM993.181 248.596C993.745 248.596 994.243 248.452 994.675 248.164C995.119 247.876 995.461 247.48 995.701 246.976C995.953 246.472 996.079 245.902 996.079 245.266C996.079 244.642 995.953 244.078 995.701 243.574C995.461 243.058 995.119 242.656 994.675 242.368C994.243 242.08 993.745 241.936 993.181 241.936C992.617 241.936 992.113 242.08 991.669 242.368C991.237 242.656 990.895 243.058 990.643 243.574C990.403 244.078 990.283 244.642 990.283 245.266C990.283 245.902 990.403 246.472 990.643 246.976C990.895 247.48 991.237 247.876 991.669 248.164C992.113 248.452 992.617 248.596 993.181 248.596ZM1015.26 245.284C1015.26 246.22 1015.05 247.06 1014.63 247.804C1014.21 248.548 1013.63 249.13 1012.9 249.55C1012.18 249.97 1011.38 250.18 1010.51 250.18C1009.63 250.18 1008.83 249.97 1008.1 249.55C1007.38 249.13 1006.81 248.548 1006.39 247.804C1005.97 247.06 1005.76 246.22 1005.76 245.284C1005.76 244.348 1005.97 243.502 1006.39 242.746C1006.81 241.99 1007.38 241.402 1008.1 240.982C1008.83 240.562 1009.63 240.352 1010.51 240.352C1011.38 240.352 1012.18 240.562 1012.9 240.982C1013.63 241.402 1014.21 241.99 1014.63 242.746C1015.05 243.502 1015.26 244.348 1015.26 245.284ZM1013.55 245.284C1013.55 244.636 1013.41 244.06 1013.14 243.556C1012.87 243.04 1012.51 242.644 1012.04 242.368C1011.58 242.08 1011.07 241.936 1010.51 241.936C1009.94 241.936 1009.43 242.08 1008.96 242.368C1008.5 242.644 1008.14 243.04 1007.86 243.556C1007.6 244.06 1007.47 244.636 1007.47 245.284C1007.47 245.92 1007.6 246.49 1007.86 246.994C1008.14 247.498 1008.5 247.894 1008.96 248.182C1009.43 248.458 1009.94 248.596 1010.51 248.596C1011.07 248.596 1011.58 248.458 1012.04 248.182C1012.51 247.894 1012.87 247.498 1013.14 246.994C1013.41 246.49 1013.55 245.92 1013.55 245.284ZM1024.81 240.568C1025.06 240.568 1025.26 240.652 1025.42 240.82C1025.59 240.988 1025.67 241.192 1025.67 241.432V246.22C1025.67 247.468 1025.32 248.44 1024.63 249.136C1023.94 249.82 1022.97 250.162 1021.71 250.162C1020.46 250.162 1019.5 249.82 1018.81 249.136C1018.13 248.44 1017.79 247.468 1017.79 246.22V241.432C1017.79 241.192 1017.87 240.988 1018.02 240.82C1018.19 240.652 1018.39 240.568 1018.63 240.568C1018.89 240.568 1019.09 240.652 1019.25 240.82C1019.41 240.988 1019.5 241.192 1019.5 241.432V246.22C1019.5 247.792 1020.24 248.578 1021.71 248.578C1022.44 248.578 1023 248.38 1023.39 247.984C1023.77 247.588 1023.96 247 1023.96 246.22V241.432C1023.96 241.192 1024.04 240.988 1024.2 240.82C1024.36 240.652 1024.57 240.568 1024.81 240.568ZM1033.47 240.352C1033.78 240.352 1034.05 240.436 1034.28 240.604C1034.51 240.76 1034.62 240.958 1034.62 241.198C1034.62 241.486 1034.54 241.708 1034.39 241.864C1034.24 242.008 1034.06 242.08 1033.85 242.08C1033.74 242.08 1033.58 242.044 1033.36 241.972C1033.11 241.888 1032.91 241.846 1032.77 241.846C1032.39 241.846 1032.03 241.978 1031.67 242.242C1031.32 242.494 1031.03 242.848 1030.8 243.304C1030.59 243.748 1030.48 244.246 1030.48 244.798V249.136C1030.48 249.376 1030.4 249.58 1030.23 249.748C1030.07 249.916 1029.87 250 1029.62 250C1029.36 250 1029.16 249.922 1029 249.766C1028.85 249.598 1028.77 249.388 1028.77 249.136V241.432C1028.77 241.192 1028.85 240.988 1029 240.82C1029.17 240.652 1029.38 240.568 1029.62 240.568C1029.87 240.568 1030.07 240.652 1030.23 240.82C1030.4 240.988 1030.48 241.192 1030.48 241.432V242.35C1030.74 241.762 1031.14 241.288 1031.67 240.928C1032.2 240.556 1032.8 240.364 1033.47 240.352ZM818.928 263.442C819.18 263.442 819.384 263.526 819.54 263.694C819.708 263.85 819.792 264.06 819.792 264.324V272.136C819.792 272.376 819.708 272.58 819.54 272.748C819.384 272.916 819.18 273 818.928 273C818.676 273 818.472 272.922 818.316 272.766C818.16 272.598 818.082 272.388 818.082 272.136V271.668C817.77 272.088 817.344 272.448 816.804 272.748C816.264 273.036 815.682 273.18 815.058 273.18C814.242 273.18 813.498 272.97 812.826 272.55C812.166 272.13 811.644 271.548 811.26 270.804C810.888 270.048 810.702 269.202 810.702 268.266C810.702 267.33 810.888 266.49 811.26 265.746C811.644 264.99 812.166 264.402 812.826 263.982C813.486 263.562 814.212 263.352 815.004 263.352C815.64 263.352 816.228 263.484 816.768 263.748C817.32 264.012 817.758 264.348 818.082 264.756V264.324C818.082 264.072 818.16 263.862 818.316 263.694C818.472 263.526 818.676 263.442 818.928 263.442ZM815.256 271.596C815.82 271.596 816.318 271.452 816.75 271.164C817.194 270.876 817.536 270.48 817.776 269.976C818.028 269.472 818.154 268.902 818.154 268.266C818.154 267.642 818.028 267.078 817.776 266.574C817.536 266.07 817.194 265.674 816.75 265.386C816.318 265.086 815.82 264.936 815.256 264.936C814.692 264.936 814.188 265.08 813.744 265.368C813.312 265.656 812.97 266.052 812.718 266.556C812.478 267.06 812.358 267.63 812.358 268.266C812.358 268.902 812.478 269.472 812.718 269.976C812.97 270.48 813.312 270.876 813.744 271.164C814.188 271.452 814.692 271.596 815.256 271.596ZM827.609 263.406C828.425 263.406 829.163 263.616 829.823 264.036C830.483 264.444 830.999 265.02 831.371 265.764C831.755 266.508 831.947 267.348 831.947 268.284C831.947 269.22 831.755 270.06 831.371 270.804C830.999 271.536 830.483 272.112 829.823 272.532C829.163 272.952 828.437 273.162 827.645 273.162C827.021 273.162 826.439 273.024 825.899 272.748C825.359 272.472 824.921 272.136 824.585 271.74V275.736C824.585 275.976 824.501 276.18 824.333 276.348C824.177 276.516 823.973 276.6 823.721 276.6C823.481 276.6 823.277 276.516 823.109 276.348C822.953 276.192 822.875 275.988 822.875 275.736V264.414C822.875 264.162 822.953 263.952 823.109 263.784C823.265 263.616 823.469 263.532 823.721 263.532C823.973 263.532 824.177 263.616 824.333 263.784C824.501 263.952 824.585 264.162 824.585 264.414V264.936C824.873 264.516 825.293 264.156 825.845 263.856C826.397 263.556 826.985 263.406 827.609 263.406ZM827.411 271.578C827.963 271.578 828.461 271.434 828.905 271.146C829.349 270.858 829.691 270.468 829.931 269.976C830.183 269.472 830.309 268.908 830.309 268.284C830.309 267.66 830.183 267.102 829.931 266.61C829.691 266.106 829.349 265.71 828.905 265.422C828.461 265.134 827.963 264.99 827.411 264.99C826.847 264.99 826.343 265.134 825.899 265.422C825.455 265.698 825.107 266.088 824.855 266.592C824.615 267.096 824.495 267.66 824.495 268.284C824.495 268.908 824.615 269.472 824.855 269.976C825.107 270.48 825.455 270.876 825.899 271.164C826.343 271.44 826.847 271.578 827.411 271.578ZM839.205 263.406C840.021 263.406 840.759 263.616 841.419 264.036C842.079 264.444 842.595 265.02 842.967 265.764C843.351 266.508 843.543 267.348 843.543 268.284C843.543 269.22 843.351 270.06 842.967 270.804C842.595 271.536 842.079 272.112 841.419 272.532C840.759 272.952 840.033 273.162 839.241 273.162C838.617 273.162 838.035 273.024 837.495 272.748C836.955 272.472 836.517 272.136 836.181 271.74V275.736C836.181 275.976 836.097 276.18 835.929 276.348C835.773 276.516 835.569 276.6 835.317 276.6C835.077 276.6 834.873 276.516 834.705 276.348C834.549 276.192 834.471 275.988 834.471 275.736V264.414C834.471 264.162 834.549 263.952 834.705 263.784C834.861 263.616 835.065 263.532 835.317 263.532C835.569 263.532 835.773 263.616 835.929 263.784C836.097 263.952 836.181 264.162 836.181 264.414V264.936C836.469 264.516 836.889 264.156 837.441 263.856C837.993 263.556 838.581 263.406 839.205 263.406ZM839.007 271.578C839.559 271.578 840.057 271.434 840.501 271.146C840.945 270.858 841.287 270.468 841.527 269.976C841.779 269.472 841.905 268.908 841.905 268.284C841.905 267.66 841.779 267.102 841.527 266.61C841.287 266.106 840.945 265.71 840.501 265.422C840.057 265.134 839.559 264.99 839.007 264.99C838.443 264.99 837.939 265.134 837.495 265.422C837.051 265.698 836.703 266.088 836.451 266.592C836.211 267.096 836.091 267.66 836.091 268.284C836.091 268.908 836.211 269.472 836.451 269.976C836.703 270.48 837.051 270.876 837.495 271.164C837.939 271.44 838.443 271.578 839.007 271.578ZM847.922 272.136C847.922 272.376 847.838 272.58 847.67 272.748C847.502 272.916 847.298 273 847.058 273C846.818 273 846.614 272.916 846.446 272.748C846.29 272.58 846.212 272.376 846.212 272.136V260.544C846.212 260.304 846.296 260.1 846.464 259.932C846.632 259.764 846.836 259.68 847.076 259.68C847.316 259.68 847.514 259.764 847.67 259.932C847.838 260.1 847.922 260.304 847.922 260.544V272.136ZM852.781 272.136C852.781 272.376 852.697 272.58 852.529 272.748C852.373 272.916 852.169 273 851.917 273C851.677 273 851.473 272.916 851.305 272.748C851.149 272.58 851.071 272.376 851.071 272.136V264.342C851.071 264.102 851.149 263.898 851.305 263.73C851.473 263.562 851.677 263.478 851.917 263.478C852.169 263.478 852.373 263.562 852.529 263.73C852.697 263.898 852.781 264.102 852.781 264.342V272.136ZM851.917 262.29C851.569 262.29 851.317 262.23 851.161 262.11C851.017 261.978 850.945 261.774 850.945 261.498V261.21C850.945 260.922 851.023 260.718 851.179 260.598C851.347 260.478 851.599 260.418 851.935 260.418C852.271 260.418 852.511 260.484 852.655 260.616C852.811 260.736 852.889 260.934 852.889 261.21V261.498C852.889 261.786 852.811 261.99 852.655 262.11C852.499 262.23 852.253 262.29 851.917 262.29ZM859.883 263.352C860.831 263.352 861.617 263.502 862.241 263.802C862.877 264.102 863.195 264.486 863.195 264.954C863.195 265.158 863.129 265.344 862.997 265.512C862.865 265.668 862.697 265.746 862.493 265.746C862.337 265.746 862.211 265.722 862.115 265.674C862.031 265.626 861.911 265.548 861.755 265.44C861.683 265.368 861.569 265.284 861.413 265.188C861.269 265.116 861.065 265.056 860.801 265.008C860.537 264.96 860.297 264.936 860.081 264.936C859.457 264.936 858.905 265.08 858.425 265.368C857.945 265.656 857.573 266.058 857.309 266.574C857.045 267.078 856.913 267.642 856.913 268.266C856.913 268.902 857.039 269.472 857.291 269.976C857.555 270.48 857.921 270.876 858.389 271.164C858.857 271.452 859.391 271.596 859.991 271.596C860.615 271.596 861.119 271.5 861.503 271.308C861.587 271.26 861.701 271.182 861.845 271.074C861.965 270.978 862.067 270.906 862.151 270.858C862.247 270.81 862.361 270.786 862.493 270.786C862.733 270.786 862.919 270.864 863.051 271.02C863.195 271.164 863.267 271.356 863.267 271.596C863.267 271.848 863.105 272.1 862.781 272.352C862.469 272.592 862.043 272.79 861.503 272.946C860.975 273.102 860.405 273.18 859.793 273.18C858.881 273.18 858.077 272.97 857.381 272.55C856.685 272.118 856.145 271.53 855.761 270.786C855.389 270.03 855.203 269.19 855.203 268.266C855.203 267.342 855.401 266.508 855.797 265.764C856.193 265.008 856.745 264.42 857.453 264C858.161 263.568 858.971 263.352 859.883 263.352ZM873.215 263.442C873.467 263.442 873.671 263.526 873.827 263.694C873.995 263.85 874.079 264.06 874.079 264.324V272.136C874.079 272.376 873.995 272.58 873.827 272.748C873.671 272.916 873.467 273 873.215 273C872.963 273 872.759 272.922 872.603 272.766C872.447 272.598 872.369 272.388 872.369 272.136V271.668C872.057 272.088 871.631 272.448 871.091 272.748C870.551 273.036 869.969 273.18 869.345 273.18C868.529 273.18 867.785 272.97 867.113 272.55C866.453 272.13 865.931 271.548 865.547 270.804C865.175 270.048 864.989 269.202 864.989 268.266C864.989 267.33 865.175 266.49 865.547 265.746C865.931 264.99 866.453 264.402 867.113 263.982C867.773 263.562 868.499 263.352 869.291 263.352C869.927 263.352 870.515 263.484 871.055 263.748C871.607 264.012 872.045 264.348 872.369 264.756V264.324C872.369 264.072 872.447 263.862 872.603 263.694C872.759 263.526 872.963 263.442 873.215 263.442ZM869.543 271.596C870.107 271.596 870.605 271.452 871.037 271.164C871.481 270.876 871.823 270.48 872.063 269.976C872.315 269.472 872.441 268.902 872.441 268.266C872.441 267.642 872.315 267.078 872.063 266.574C871.823 266.07 871.481 265.674 871.037 265.386C870.605 265.086 870.107 264.936 869.543 264.936C868.979 264.936 868.475 265.08 868.031 265.368C867.599 265.656 867.257 266.052 867.005 266.556C866.765 267.06 866.645 267.63 866.645 268.266C866.645 268.902 866.765 269.472 867.005 269.976C867.257 270.48 867.599 270.876 868.031 271.164C868.475 271.452 868.979 271.596 869.543 271.596ZM879.718 265.242V270.606C879.718 271.206 879.988 271.506 880.528 271.506C880.612 271.506 880.726 271.488 880.87 271.452C881.014 271.404 881.128 271.38 881.212 271.38C881.368 271.38 881.5 271.446 881.608 271.578C881.716 271.71 881.77 271.878 881.77 272.082C881.77 272.334 881.626 272.55 881.338 272.73C881.05 272.91 880.726 273 880.366 273C879.97 273 879.604 272.958 879.268 272.874C878.944 272.79 878.65 272.58 878.386 272.244C878.134 271.896 878.008 271.374 878.008 270.678V265.242H876.964C876.736 265.242 876.544 265.17 876.388 265.026C876.244 264.87 876.172 264.678 876.172 264.45C876.172 264.222 876.244 264.036 876.388 263.892C876.544 263.748 876.736 263.676 876.964 263.676H878.008V262.164C878.008 261.924 878.086 261.72 878.242 261.552C878.41 261.384 878.62 261.3 878.872 261.3C879.112 261.3 879.31 261.384 879.466 261.552C879.634 261.72 879.718 261.924 879.718 262.164V263.676H881.212C881.44 263.676 881.626 263.754 881.77 263.91C881.926 264.054 882.004 264.24 882.004 264.468C882.004 264.696 881.926 264.882 881.77 265.026C881.626 265.17 881.44 265.242 881.212 265.242H879.718ZM886.159 272.136C886.159 272.376 886.075 272.58 885.907 272.748C885.751 272.916 885.547 273 885.295 273C885.055 273 884.851 272.916 884.683 272.748C884.527 272.58 884.449 272.376 884.449 272.136V264.342C884.449 264.102 884.527 263.898 884.683 263.73C884.851 263.562 885.055 263.478 885.295 263.478C885.547 263.478 885.751 263.562 885.907 263.73C886.075 263.898 886.159 264.102 886.159 264.342V272.136ZM885.295 262.29C884.947 262.29 884.695 262.23 884.539 262.11C884.395 261.978 884.323 261.774 884.323 261.498V261.21C884.323 260.922 884.401 260.718 884.557 260.598C884.725 260.478 884.977 260.418 885.313 260.418C885.649 260.418 885.889 260.484 886.033 260.616C886.189 260.736 886.267 260.934 886.267 261.21V261.498C886.267 261.786 886.189 261.99 886.033 262.11C885.877 262.23 885.631 262.29 885.295 262.29ZM898.086 268.284C898.086 269.22 897.876 270.06 897.456 270.804C897.036 271.548 896.46 272.13 895.728 272.55C895.008 272.97 894.21 273.18 893.334 273.18C892.458 273.18 891.654 272.97 890.922 272.55C890.202 272.13 889.632 271.548 889.212 270.804C888.792 270.06 888.582 269.22 888.582 268.284C888.582 267.348 888.792 266.502 889.212 265.746C889.632 264.99 890.202 264.402 890.922 263.982C891.654 263.562 892.458 263.352 893.334 263.352C894.21 263.352 895.008 263.562 895.728 263.982C896.46 264.402 897.036 264.99 897.456 265.746C897.876 266.502 898.086 267.348 898.086 268.284ZM896.376 268.284C896.376 267.636 896.238 267.06 895.962 266.556C895.698 266.04 895.332 265.644 894.864 265.368C894.408 265.08 893.898 264.936 893.334 264.936C892.77 264.936 892.254 265.08 891.786 265.368C891.33 265.644 890.964 266.04 890.688 266.556C890.424 267.06 890.292 267.636 890.292 268.284C890.292 268.92 890.424 269.49 890.688 269.994C890.964 270.498 891.33 270.894 891.786 271.182C892.254 271.458 892.77 271.596 893.334 271.596C893.898 271.596 894.408 271.458 894.864 271.182C895.332 270.894 895.698 270.498 895.962 269.994C896.238 269.49 896.376 268.92 896.376 268.284ZM905.42 263.352C907.58 263.352 908.66 264.648 908.66 267.24V272.136C908.66 272.376 908.576 272.58 908.408 272.748C908.252 272.916 908.048 273 907.796 273C907.556 273 907.352 272.916 907.184 272.748C907.028 272.58 906.95 272.376 906.95 272.136V267.258C906.95 266.55 906.788 265.986 906.464 265.566C906.14 265.146 905.612 264.936 904.88 264.936C904.4 264.936 903.962 265.044 903.566 265.26C903.182 265.464 902.876 265.746 902.648 266.106C902.432 266.454 902.324 266.838 902.324 267.258V272.136C902.324 272.376 902.24 272.58 902.072 272.748C901.916 272.916 901.712 273 901.46 273C901.208 273 901.004 272.922 900.848 272.766C900.692 272.598 900.614 272.388 900.614 272.136V264.432C900.614 264.192 900.692 263.988 900.848 263.82C901.016 263.652 901.22 263.568 901.46 263.568C901.712 263.568 901.916 263.652 902.072 263.82C902.24 263.988 902.324 264.192 902.324 264.432V265.062C902.636 264.582 903.068 264.18 903.62 263.856C904.184 263.52 904.784 263.352 905.42 263.352Z" fill="#5E80FF"/>
<ellipse cx="840.625" cy="86.5" rx="15.6369" ry="15.5" stroke="#5E80FF" stroke-width="4" stroke-linecap="round" stroke-linejoin="round"/>
<path d="M867.25 133C867.25 118.656 855.33 107.027 840.625 107.027C825.92 107.027 814 118.656 814 133" stroke="#5E80FF" stroke-width="4" stroke-linecap="round" stroke-linejoin="round"/>
<ellipse cx="874.012" cy="89.2229" rx="6.45334" ry="6.49324" stroke="#5E80FF" stroke-width="3" stroke-linecap="round" stroke-linejoin="round"/>
<path d="M885 108.703C885 102.694 880.08 97.8221 874.012 97.8221C867.943 97.8221 863.024 102.694 863.024 108.703" stroke="#5E80FF" stroke-width="3" stroke-linecap="round" stroke-linejoin="round"/>
<defs>
<linearGradient id="paint0_linear_6_371" x1="720" y1="0.999975" x2="1120" y2="343" gradientUnits="userSpaceOnUse">
<stop stop-color="#E9EFFF"/>
<stop offset="1" stop-color="#E0E9FF"/>
</linearGradient>
<linearGradient id="paint1_linear_6_371" x1="549" y1="1.00002" x2="360" y2="343" gradientUnits="userSpaceOnUse">
<stop stop-color="#6888FF"/>
<stop offset="1" stop-color="#5E80FF"/>
</linearGradient>
</defs>
</svg>
